<svg width="599" height="443" viewBox="0 0 599 443" fill="none" xmlns="http://www.w3.org/2000/svg">
<path d="M146.8 58C149.2 73.6 143.6 90.8 138 105.2C132.4 119.6 124.8 133.2 115.6 145.2C117.6 141.2 119.6 137.2 121.6 133.2C108.4 156 90 175.6 68.4 190C81.2 183.6 92.8 175.2 102.4 164.4C96.4 172 84.8 188.4 72 196C72 196.4 72 196 72 196C63.6 200.8 54.8 202 47.2 193.6C40.8 216 34.8 238.8 29.2 261.6C26.4 273.2 23.6 284.8 21.2 296.8C19.6 303.6 19.2 316.8 10.8 319.2C10 317.6 9.6 316 8.8 314C6.8 317.6 2.8 315.6 1.6 312.8C-1.49012e-07 310 1.2 305.2 1.6 301.6C2.4 291.6 3.6 281.2 4.8 271.2C7.6 251.2 10.8 231.2 14.4 211.6C18 192 21.6 172 24 152C25.6 142 26.8 131.6 27.6 121.6C28 116.8 31.6 97.6 26.8 94.8C21.2 101.6 16.8 109.6 13.6 117.6C11.6 112.4 15.2 110.8 16.8 106.4C17.2 104.8 16.4 103.2 17.2 101.6C17.6 100.4 19.6 101.2 19.6 102.4C20.4 98.4 21.2 94 22.4 90C15.6 99.6 11.2 110.4 9.6 121.6C10 118.8 7.6 116 8 112.8C8.4 109.6 10 105.6 10.8 102.4C12 96 14.4 89.6 20 86C32.4 78.8 39.2 89.6 39.2 100.4C39.6 117.6 37.2 136 35.2 153.2C34.4 161.6 33.2 170 32 178.4C31.6 181.2 27.6 196.4 29.6 198C30.4 196.8 31.2 191.2 32 188.8C33.6 183.6 35.2 178.4 37.2 173.2C40.4 163.6 44 154 47.2 144.8C54.8 125.6 62.8 106.8 72.8 89.2C81.6 73.2 92.4 57.6 107.2 46C114.4 40.4 124 34.8 133.6 38.4C141.2 41.6 146 50 146.8 58ZM37.6 92.8C37.2 93.2 38.4 93.2 37.6 92.8V92.8ZM17.6 103.2C18 102.8 18 102.8 18 102.8C18 102.8 18 102.8 17.6 103.2ZM18.4 104.4C18 104.4 19.2 104 18.4 104.4V104.4ZM19.2 102.8C18.8 103.2 20 102 19.2 102.8V102.8ZM21.2 98.8C21.2 98 20.8 98 20.8 98.4C20.4 99.2 20.8 99.2 21.2 98.8ZM22.4 93.2C21.6 94 22.8 92.8 22.4 93.2V93.2ZM22.8 90.4C22.8 90 22.8 90 23.2 90C23.2 90 22.8 90 22.8 90.4ZM26 92.8C26 92.8 25.2 93.2 25.6 93.2C26 93.2 26 92.8 26 92.8ZM26 92.8C26.4 92.8 26.4 92.4 26.4 92C26 92 26 92.4 26 92.8ZM26.8 92C25.6 92.4 27.2 91.6 26.8 92V92ZM11.6 299.2C11.6 298.8 11.6 298.8 11.2 298.4C10.8 298.8 10.8 299.2 11.6 299.2ZM12.8 292.8C12.4 293.2 13.2 292.4 12.8 292.8V292.8ZM122 52.4C121.2 53.2 122.4 52 122 52.4V52.4ZM122 52.8C121.2 52.8 120.8 52.4 120.4 53.2C121.2 53.2 121.6 53.6 122 52.8ZM120.4 53.6C119.6 53.2 118.8 53.6 118.8 54.8C119.6 54.8 120.4 54.4 120.4 53.6ZM115.2 52.8C114.8 53.6 115.6 53.2 115.2 52.8V52.8ZM118.4 54.8C116.4 54.8 115.6 57.2 113.6 57.6C110 58.4 105.6 65.6 103.2 68.8C100.4 71.6 98 74.8 95.6 78C90.4 85.6 85.6 93.2 81.2 100.8C75.2 111.2 69.6 122.4 65.6 133.2C62.8 139.6 57.6 148.4 57.6 155.2C59.2 154.8 62.8 143.6 63.6 141.6C66 136 68.4 130.4 71.2 125.2C74.8 116.8 79.2 108.4 84 100.4C88.4 93.6 92.8 86.4 97.2 79.6C100 75.2 103.2 71.6 106.4 67.6C109.6 63.2 116.4 59.2 118.4 54.8ZM58 143.6C57.6 144 57.2 144 57.6 144.8C58 144.8 58 144 58 143.6ZM59.2 140.4C58.4 140.4 58 143.2 58 143.6C59.2 143.6 59.6 140.8 59.2 140.4ZM60.8 137.2C59.6 137.2 59.2 140 59.2 140.4C60.4 140.4 60.8 137.6 60.8 137.2ZM64 129.6C62.4 129.6 60.4 136 60.8 137.2C62 136.4 64 130.8 64 129.6ZM100 66.8C99.2 67.6 103.2 66 103.2 63.6C102 64.4 100.8 65.6 100 66.8ZM102 67.6C102 66.8 102.4 67.2 102 67.6V67.6ZM102 67.6C101.6 67.6 101.2 68 101.2 68.4C101.6 68 102 68 102 67.6ZM101.2 68.4C100.8 68.4 100.8 68.4 100.8 68.8C101.2 68.8 101.2 68.8 101.2 68.4ZM99.6 70.4C99.6 70.4 100.8 69.6 99.2 69.6C99.2 70 99.2 70.4 99.6 70.4ZM100 69.6C100 68 101.2 69.6 100 69.6V69.6ZM100 67.6C98.4 68.8 94.8 72 94.8 74C95.6 74 96 73.6 96.4 73.2C96.4 73.2 96.4 73.6 96.8 74C97.2 73.6 97.6 73.2 97.2 72.8H96.8C98 71.2 98.4 69.2 100 68.8C100 68.4 100 68 100 67.6ZM98 72C98.4 71.2 98.8 72 98 72V72ZM97.2 72C97.2 73.2 98.4 72 97.2 72V72ZM96.8 74C96.4 74 96 74.4 96 74.8C96.4 74.8 96.8 74.4 96.8 74ZM96 74.8C95.6 74.8 95.6 74.8 95.6 75.2C96 75.2 96 75.2 96 74.8ZM94.8 75.2C94.8 76.4 96 75.2 94.8 75.2V75.2ZM94.4 75.6C94.8 75.2 95.2 74.8 94.8 74C91.2 75.2 88 82.4 86.4 85.2C82.8 90.4 80 95.6 77.2 100.8C74 106.4 71.2 112 68.8 117.6C67.2 121.2 64 125.6 64 129.6C66 129.2 68.4 119.2 70 117.6C70.8 116.4 72 116 73.2 114C76.4 108.4 79.6 102.4 82.4 96.4C84 93.2 84.4 90.8 86 88.8C86.4 87.6 89.2 84.4 90.4 82.4C90.4 82.4 90.8 82.4 90.8 81.6C90.8 81.2 91.6 80.4 92 80C92.4 80 92.4 80 92.4 79.6V80C92.8 79.6 92.8 79.6 92.8 79.2C93.2 78.4 94.4 76.4 94.4 75.6ZM93.2 78.8V79.2V78.8ZM93.2 79.2C93.2 79.6 93.2 79.2 93.2 79.2V79.2ZM86.4 88.8C85.2 88.8 86.4 89.6 86.4 88.8V88.8ZM70.8 118C71.2 117.2 71.2 117.2 70.4 117.2C70.4 117.6 70.8 119.2 70.8 118ZM70.4 119.6C69.6 120 70 119.2 70.4 119.6V119.6ZM103.2 63.6C103.6 63.6 103.6 63.6 103.6 63.2C103.6 63.2 103.2 63.2 103.2 63.6ZM104 63.2C104.4 63.2 104.4 62.8 104.4 62.4C104 62.4 104 62.8 104 63.2ZM112.8 54.8C112.4 54.8 112.4 54.8 112.4 55.2C112.4 55.2 112.8 55.2 112.8 54.8ZM112 55.2C111.6 55.2 111.6 55.6 111.6 56C112 56 112 55.6 112 55.2ZM111.6 56C111.2 56 110.8 56.4 110.8 56.8C111.2 56.4 111.6 56.4 111.6 56ZM110.8 56.8C109.6 56.4 108.8 57.6 108.4 58.4C109.6 58.8 110.4 57.6 110.8 56.8ZM108.4 58.4C108 58.8 107.6 58.8 107.6 59.2C108 59.2 108.4 58.8 108.4 58.4ZM107.6 59.2C107.2 59.2 107.2 59.6 107.2 60C107.6 60 107.6 59.6 107.6 59.2ZM107.2 60C106.8 60 106.4 60 106.4 60.4C106.8 60.4 107.2 60.4 107.2 60ZM106.4 60.4C106 60.4 105.6 60.8 105.6 61.2C106 61.2 106.4 60.8 106.4 60.4ZM105.6 61.2C105.2 61.2 105.2 61.2 105.2 61.6C105.6 61.6 105.6 61.6 105.6 61.2ZM104.4 62.4C104.8 62.4 105.2 62 105.2 62C104.8 62 104.4 62 104.4 62.4ZM104.8 57.2C104 58 103.6 58.8 102.8 59.6C103.2 59.2 104.8 59.2 104.8 57.2ZM102 60.8C101.2 61.2 102 60.8 102.4 60.8C102 60.8 102 60.8 102 60.8ZM102 61.2C101.6 61.2 101.2 61.2 101.2 61.6C101.6 61.6 102 61.6 102 61.2ZM101.2 62C100.8 62 100.8 62 100.8 62.4C101.2 62.4 101.2 62 101.2 62ZM100.4 62.4C100 62.4 100 62.8 100 63.2C100.4 63.2 100.4 62.8 100.4 62.4ZM100 63.2C99.6 63.2 99.2 63.2 99.2 63.6C99.6 63.6 100 63.6 100 63.2ZM99.2 63.6C98.8 63.6 98.8 64 98.8 64.4C99.2 64.4 99.2 64 99.2 63.6ZM95.6 67.2C94.8 68.4 98.8 66.4 98.8 64.4C97.6 65.2 96.4 66 95.6 67.2ZM90.8 70.8C90.4 71.2 91.2 71.6 90.8 70.8V70.8ZM88.4 73.6C88.4 74.4 89.2 73.6 88.4 73.6V73.6ZM85.2 78C84.8 78.4 86.4 77.6 85.2 78V78ZM84 80C83.6 80.4 85.2 79.2 84 80V80ZM82.8 84.8C82.4 85.6 82 86.8 82 87.6C84.8 86 87.6 79.6 89.6 76.8C91.2 74.8 95.2 70.8 95.6 68.4C93.2 68.4 89.2 75.2 88 77.2C86.4 78.8 84.8 83.6 82.8 84.8ZM80.8 85.2C80.4 85.2 81.6 84.8 80.8 85.2V85.2ZM79.2 88.4C78.8 88.8 79.6 88.8 79.2 88.4V88.4ZM78.8 91.6C78 92.4 78 93.2 78 94C79.6 93.6 82 88.4 82 87.6C80 88.4 80 90.4 78.8 91.6ZM75.2 94.8C74.4 95.2 75.6 94.4 75.2 94.8V94.8ZM74 97.2C73.2 97.6 74.4 97.2 74 97.2V97.2ZM71.2 102C70.8 102.4 70.8 102.8 71.2 102.8C71.2 102.8 71.6 101.6 71.2 102ZM68 108.8C67.6 109.6 68.8 109.2 68 108.8V108.8ZM62.4 118.8C61.6 118.8 62.8 118.4 62.4 118.8V118.8ZM61.6 122C61.2 122.4 62 122 61.6 122V122ZM59.6 123.6C59.2 124.4 60 124 59.6 123.6V123.6ZM58.4 126.8C57.6 126.8 58.4 129.2 59.2 128.4C59.6 128.4 58.8 127.2 58.4 126.8ZM56.8 131.2C55.6 131.6 56 133.2 57.2 133.2C58.4 132.8 57.6 130.8 57.2 130C56.8 130.4 56.8 130.8 56.8 131.2ZM56 132.8C55.2 134 54.8 135.2 54.8 136.4C58 136 55.6 134 56 132.8ZM54.8 139.2C55.6 138.4 55.6 138 54.8 138C54.8 138.4 54.8 138.8 54.8 139.2ZM54.8 136.4C54 137.2 54 137.6 54.8 137.6C54.8 137.2 54.8 136.8 54.8 136.4ZM54.8 139.2C54 139.2 54.4 140 54.8 139.2V139.2ZM53.2 143.6C54 142.8 52.8 140.4 52.4 142C52.4 142 52.8 144 53.2 143.6ZM52.4 146.8C52 146.4 51.6 146 51.6 146.4C51.6 146.4 51.6 146.8 51.6 147.6C52 147.2 52 146.8 52.4 146.8ZM51.6 146C51.6 145.6 51.2 144 51.2 145.2C51.2 145.6 51.2 146 51.6 146ZM50 148.4C49.6 148.8 50.4 150 50.4 150.4C50.8 151.2 51.6 147.6 51.6 147.6C50.8 147.2 50.4 147.6 50 148.4ZM49.6 150C49.2 150.8 49.6 150.4 49.6 150V150ZM48.8 152.4C48.4 151.6 46.4 156.8 47.2 156C46.4 156.8 48.8 155.6 48.8 155.6C48.8 155.6 49.6 152.8 48.8 152.4ZM46.4 157.6C46.4 158.4 47.6 158.8 47.6 158C47.6 157.2 47.2 156.8 46.4 157.6ZM46 159.2C46 160 45.6 160.4 45.6 160.8C45.6 162 45.6 162.8 46 163.6C48 163.6 46.8 160 46 159.2ZM44.4 163.6C44.4 164 44.4 164.4 45.2 164.8C45.6 164.8 46 164.4 46 163.6C45.6 163.2 45.2 163.2 44.4 163.6ZM43.6 167.6C42.8 168 44 169.2 44.4 169.2C44.8 169.2 44.4 167.2 43.6 167.6ZM38.8 181.2C38.8 182 38.8 182.4 38.8 182.8C40.4 182.8 38.8 180.4 38.8 181.2ZM38.8 182.8C38 183.6 38 184 38 184.8C38.8 184.4 38.8 183.6 38.8 182.8ZM37.6 185.2C37.6 186 37.6 186.4 37.6 186.8C39.2 186.4 37.6 184 37.6 185.2ZM37.6 186.8C36.8 187.2 36.4 187.6 36.8 188.4C36.4 189.2 37.2 190 38 189.2C37.6 188.4 37.6 187.6 37.6 186.8ZM36 191.2C35.6 191.6 35.6 192 35.6 192.4C36.4 192.8 36 191.6 36 191.2ZM34.4 196C34.4 196.8 34.4 197.2 34.4 197.6C34.4 197.6 34.8 197.6 35.2 197.6C35.6 197.2 34.4 195.2 34.4 196ZM34 198C33.6 198.4 33.6 198.8 34 199.6C34 200 34 198.8 34 198ZM33.2 200.4C32.8 200.8 32.8 200.8 33.2 201.6C33.6 201.2 33.6 200.8 33.2 200.4ZM32 204.8C31.6 205.6 31.6 205.6 32 206C32.4 205.6 32.4 205.2 32 204.8ZM30.8 210C30.4 210.8 31.2 210 30.8 210V210ZM34.4 206C32.4 214.8 28.8 223.6 27.6 232.8C27.6 233.2 28 233.6 28 234C32.4 228.4 32.8 216.8 34.4 210C36 204.8 37.2 199.2 38.8 194C39.6 191.6 42.4 188 40.4 185.6C38.4 187.2 38 193.6 37.2 196C36 199.2 35.2 202.4 34.4 206ZM32.8 225.2C32.4 225.6 33.2 224.8 32.8 225.2V225.2ZM32 227.6C31.6 227.2 32 228.4 32 227.6V227.6ZM29.6 238C29.2 238.4 29.6 238 29.6 238V238ZM27.6 234.4C26 235.2 26 240.8 26 242C26.8 241.6 26.4 240.8 26.8 240C27.6 238.8 27.6 235.6 27.6 234.4ZM25.2 242.8C25.2 243.2 25.2 244 25.2 244.8C26.8 244.8 25.2 241.2 25.2 242.8ZM24.8 245.2C24.8 246 24.4 246.8 24.4 247.2C26 247.2 24.8 243.6 24.8 245.2ZM24 247.6C23.6 248.8 23.6 249.2 24.4 249.6C24.8 250 24.4 246.4 24 247.6ZM22.4 282.4C22.8 282 22.8 282 22.4 281.6C22 282 22 282.4 22.4 282.4ZM22.8 280C23.6 279.6 23.2 279.2 22.8 279.2C22.4 279.6 22.4 279.6 22.8 280ZM25.2 271.6C25.6 270 25.6 268.4 26 266.8C24.4 266.8 22.8 275.6 23.6 276.8C24.8 275.6 24 272.8 25.2 271.6ZM26.4 266C26.4 265.6 26.4 264.8 26.4 264C24.8 264 26.4 267.6 26.4 266ZM27.2 263.6C27.2 262.8 27.2 262.4 27.2 261.6C25.6 261.6 26.8 265.2 27.2 263.6ZM27.2 261.6C28 261.2 28 260.4 27.6 259.6C27.2 260 26.8 260.8 27.2 261.6ZM41.2 209.2C41.6 208.4 41.6 207.2 41.2 206C39.6 206.8 38.8 214.4 38.4 216.4C36.8 221.2 35.6 226.4 34.4 231.2C33.2 236 32 240.4 30.8 245.2C30 249.2 26.8 255.6 27.6 259.6C29.6 258.8 30.8 249.2 31.2 246.4C32.4 242.4 33.6 238 34.4 233.6C35.6 229.2 36.8 224.8 38 220.4C38.8 217.6 39.2 211.6 41.2 209.2ZM42 206C42.4 204.4 42.4 203.2 42.4 201.6C40.8 202.4 41.6 206.4 42 206ZM42.8 201.6C43.2 201.6 43.2 200 43.2 200C42.4 200 42.4 200.8 42.8 201.6ZM43.6 198.8C44 198.8 44 198.4 43.6 198C43.2 198 43.2 198.4 43.6 198.8ZM45.2 175.2C46 172.8 48.8 167.6 48.4 165.2C48 162.8 50.8 158.8 51.6 156.8C52.4 153.6 53.2 150.8 54.4 147.6C56.8 142 58.4 136.8 60.8 131.2C63.2 126 65.2 120 67.6 114.8C69.2 111.6 70.8 108.4 72.4 105.2C74 102.8 78.4 96.8 78 94C75.2 95.2 73.6 100.8 72 103.6C70 107.6 67.6 112 66 116.4C62.4 124.8 58 133.2 55.2 141.6C52.8 148.8 50 156 47.6 163.2C46.8 166 40.4 178 42.4 180.8C42.8 181.6 44.8 176 45.2 175.2ZM55.6 158.8C55.6 159.2 55.6 160 55.6 160.4C56.8 160.4 57.2 156.4 57.6 155.2C56.4 155.2 56 158.4 55.6 158.8ZM56.4 148.4C57.6 148 56.4 146 56 147.2C56 148 56 148.4 56.4 148.4ZM56.8 146.4C56.8 146.8 56.8 147.2 57.2 146.4C57.6 145.6 56.8 145.6 56.8 146.4ZM54 164.4C53.6 164.4 53.6 164.8 53.6 165.2C54.4 165.2 54.4 164.8 54 164.4ZM54.4 152.4C54 154 54.4 150.8 54.4 152.4V152.4ZM54.4 164C55.2 164 55.6 159.6 54.8 160.8C54.4 161.6 54 162.8 54.4 164ZM54.8 151.2C54.8 152 54.8 152 55.6 151.6C55.6 150.8 54.8 150.8 54.8 151.2ZM53.2 156.8C53.6 156.4 53.6 156.4 53.2 156C52.8 156.4 52.8 156.8 53.2 156.8ZM53.2 167.2C54 167.2 53.2 166.4 53.2 166.4C52.8 166.4 52.8 166.8 53.2 167.2ZM52.8 158C52.4 158.8 52.4 157.6 52.8 158V158ZM52 171.2C52.4 170.8 52.4 170.4 52 170C51.6 170.4 51.6 170.8 52 171.2ZM51.2 188C52.4 187.6 50 186.4 49.6 187.2C49.6 188 50.4 188.4 51.2 188ZM52.8 194.8C52 194.8 52.8 194.4 52.8 194.8V194.8ZM56.4 190C56 190 57.6 189.2 56.4 190V190ZM56.4 188.8C57.2 188.8 58.8 190 60 189.2C59.2 188.4 58 188.8 58.8 187.6C58.4 187.6 53.6 187.6 54.4 189.2C54.8 189.2 55.6 189.2 56.4 188.8ZM61.6 192.4C61.6 192.4 68 191.6 66.8 190.8C66 190 59.2 191.6 59.6 192.8C59.6 193.6 61.6 192.4 61.6 192.4ZM60 187.2C60.4 186.8 60.8 187.6 60 187.2V187.2ZM61.6 188.4C61.6 188.8 62 188.8 62.4 188C62 188 61.6 188 61.6 188.4ZM64.4 188C64.8 187.6 64.8 187.2 65.2 186.8C64 186.4 63.2 186.8 62.8 188C63.2 188 64 188 64.4 188ZM64.4 188.8C64 188.8 64.4 189.2 64.4 188.8V188.8ZM66.4 186C66 186 65.2 186 65.2 186.8C65.6 186.8 66.4 186.8 66.4 186ZM66 184.8C66 184 66.4 184.4 66 184.8V184.8ZM66.4 186C66.8 185.6 67.2 186 66.4 186V186ZM67.2 184C67.2 184 67.2 184 67.2 183.6C67.2 183.6 67.2 183.6 67.2 184ZM67.2 183.6C67.6 183.6 67.6 183.6 67.6 183.6C67.6 183.6 67.6 183.6 67.2 183.6ZM81.2 184.8C81.6 184.8 82 184.4 81.2 184.8V184.8ZM80 184.4C79.6 184.4 79.2 184.4 79.2 184.8C79.6 184.8 80 184.8 80 184.4ZM76.8 186.4C76.8 186.8 77.6 186.4 76.8 186.4V186.4ZM68.4 194C67.6 194 68 194.4 68.4 194V194ZM68.4 190C67.6 190.4 68 190.8 68.4 190V190ZM67.6 183.6C68.4 183.6 68.8 183.6 68.8 182.8C68.4 182.8 68 182.8 67.6 183.6ZM68.4 185.6C70 184.8 70.8 184 71.6 182.8C69.6 182.8 68.4 185.6 68.4 185.6ZM69.2 182.8C70 183.2 70.8 182.8 70.8 181.6C70 181.6 69.2 182 69.2 182.8ZM70.8 181.6C71.6 181.6 71.6 180.4 70.8 181.6V181.6ZM71.6 182.8C72.4 182.8 73.2 182.4 73.6 181.6C72.4 181.6 72 182 71.6 182.8ZM72.8 180.4C72.8 180 72.8 180 72.8 180.4V180.4ZM74 179.6C74.4 178.4 75.6 179.6 74 179.6V179.6ZM74.8 178.8C75.2 178.4 75.6 178.8 74.8 178.8V178.8ZM72.8 180.4C74 180.8 74.4 180.4 74 179.6C73.6 179.6 73.2 179.6 72.8 180.4ZM73.6 181.6C74 181.6 74 181.2 74 180.8C73.6 181.2 73.6 181.2 73.6 181.6ZM74 180.8C75.2 181.2 75.6 180.8 76 179.6C74.8 179.6 74 179.6 74 180.8ZM76 179.6C76.4 179.6 76.8 179.6 76.8 179.2C76.4 179.2 76 179.2 76 179.6ZM76.8 179.2C77.2 179.2 77.2 178.8 77.2 178.4C76.8 178.4 76.8 178.8 76.8 179.2ZM78 178C77.6 179.2 78 176.8 78 178V178ZM77.6 177.2C78 177.2 78 176.8 78 176.4C77.6 176.4 77.6 176.8 77.6 177.2ZM79.2 177.6C78.8 178 80 176.8 79.2 177.6V177.6ZM79.2 177.2C80.8 177.2 82 175.6 82.4 174.4C81.6 174.4 80.4 175.2 80 175.6C80 175.6 80 175.6 80 175.2C79.2 175.2 78.4 175.6 78 176.4C78.8 176.4 79.2 176.4 79.6 176.4C79.6 176.4 79.2 176.8 79.2 177.2ZM80.8 174.4C80.8 173.2 82 174.4 80.8 174.4V174.4ZM81.2 174C81.6 174 82 173.6 82 173.2C81.6 173.2 81.2 173.6 81.2 174ZM80 175.2C80 174 81.6 175.2 80 175.2V175.2ZM81.6 178.4C82 178 82 178 82 178C82 178 81.6 178 81.6 178.4ZM82 177.6C82.8 178 83.6 177.6 84 176.4C82.8 176.4 82.4 176.8 82 177.6ZM82.4 174.4C82.8 174.4 83.2 174.4 83.2 174C82.8 174 82.4 174 82.4 174.4ZM83.2 174C83.2 172.4 84.4 174 83.2 174V174ZM82 173.2C82.8 173.6 83.6 173.2 84 172.4C84 171.2 82 172.4 82 173.2ZM84.4 171.2C84.4 170 86 171.2 84.4 171.2V171.2ZM85.2 170.8C85.6 170.8 85.6 170.4 85.6 170C85.2 170 85.2 170.4 85.2 170.8ZM84 172C84 170.8 85.2 172 84 172V172ZM86.4 171.2C84.4 171.2 85.2 172.4 84 172.8C84 174.4 86 171.6 86.4 171.2ZM85.6 170C86 170 86.4 169.6 86.4 169.6C86 169.6 86 169.6 85.6 170ZM84 176.4C84.4 176.4 84.4 176.4 84.4 176C84 176 84 176 84 176.4ZM84.4 175.6C84.8 175.6 85.2 175.6 85.2 175.2C84.8 175.2 84.4 175.6 84.4 175.6ZM85.2 175.2C85.6 175.2 85.6 174.8 85.6 174.4C85.2 174.4 85.2 174.8 85.2 175.2ZM85.6 174.4C86 174.4 86.4 174.4 86.4 174C86 174 86 174 85.6 174.4ZM86.4 171.2C86.8 171.2 87.2 171.2 87.2 170.8C86.8 170.8 86.4 170.8 86.4 171.2ZM86.4 169.2C86.8 169.2 86.8 168.4 86.4 169.2V169.2ZM87.2 170.8C87.6 170.8 87.6 170.4 87.6 170C87.2 170 87.2 170.4 87.2 170.8ZM87.6 170C88 170 88.4 169.6 88.4 169.2C88 169.6 87.6 169.6 87.6 170ZM88.4 169.2C88.8 169.2 88.8 169.2 88.8 168.8C88.4 168.8 88.4 168.8 88.4 169.2ZM89.2 168.8C89.2 167.2 90 168.8 89.2 168.8V168.8ZM89.6 167.6C88.4 167.6 89.6 166.4 89.6 167.6V167.6ZM89.6 168C89.6 166.4 90.8 168 89.6 168V168ZM89.6 166.8C89.6 165.6 91.2 166.8 89.6 166.8V166.8ZM90.4 167.6C90.4 166 91.6 167.2 90.4 167.6V167.6ZM90.4 166C90.4 165.6 91.2 166 90.4 166V166ZM90.8 166.8C90.8 165.2 92 166.8 90.8 166.8V166.8ZM91.6 166C92 166 92 166 92 165.6C92 165.6 91.6 165.6 91.6 166ZM92.4 165.6C92.8 165.6 92.8 165.2 92.8 164.8C92.4 164.8 92.4 165.2 92.4 165.6ZM100.4 160.8C101.6 159.6 96.4 162 96.8 164C96.8 164.4 100.4 160.8 100.4 160.8ZM100.8 159.6C100.8 159.6 101.2 159.6 101.2 159.2C100.8 159.2 100.8 159.2 100.8 159.6ZM101.2 159.2C101.6 159.2 102 158.8 102 158.4C101.6 158.4 101.2 158.8 101.2 159.2ZM104.4 156C105.2 155.2 102 156.4 102 158.4C102.8 158 103.6 157.2 104.4 156ZM104.4 155.2C104.8 155.2 105.2 154.8 105.2 154.4C104.8 154.4 104.4 154.8 104.4 155.2ZM106.4 153.6C106.8 152.8 106.8 152.4 107.2 152C106 152 105.2 153.6 105.2 154.4C105.6 154.4 106 154 106.4 153.6ZM107.2 152C107.6 152 107.6 151.6 107.6 151.2C107.2 151.2 107.2 151.6 107.2 152ZM107.6 151.2C108.8 151.2 109.2 150.4 108.8 149.6C108 149.6 107.6 150.4 107.6 151.2ZM110.4 148.4C110.4 147.6 110.8 147.2 110.8 146.8C110 146.8 108.8 148.4 108.8 149.2C109.6 149.2 110 148.8 110.4 148.4ZM110.8 146.8C112 146.4 112.4 146 112 144.8C111.2 145.2 110.8 146 110.8 146.8ZM112.4 144.8C112.4 144.8 112.8 144.8 112.8 144.4C112.4 144.4 112.4 144.4 112.4 144.8ZM112.8 144.4C113.6 144 113.6 143.6 113.6 142.8C112.8 143.2 112.8 143.6 112.8 144.4ZM114.8 142C115.2 141.2 115.2 140.8 115.2 140.4C114.4 140.4 113.6 142 113.6 142.8C114 142.8 114.4 142.4 114.8 142ZM115.6 140.4C116.4 140.4 116 139.6 116 139.2C115.2 139.2 115.6 140 115.6 140.4ZM116 139.2C116.8 138.8 116.8 138.4 116.8 138C116 138 116 138.4 116 139.2ZM116.8 137.6C117.6 137.6 118 136.8 118 136C117.2 136 116.8 136.8 116.8 137.6ZM118 136C118.8 135.6 119.2 134.8 119.2 134C118.4 134.4 118 134.8 118 136ZM118.8 132C118.8 131.2 118.4 131.2 118 132C118 132.8 118.4 132.4 118.8 132ZM118.8 131.2C119.2 131.2 119.2 131.2 119.2 130.8C118.8 130.8 118.8 130.8 118.8 131.2ZM119.2 130.8C120 130.4 120 130 120 129.6C119.2 129.6 119.2 130 119.2 130.8ZM120.4 129.2C119.6 130.4 120.8 128.8 120.4 129.2V129.2ZM121.2 127.6C121.6 127.2 121.6 126.8 122 126.4C120 126.4 120.4 128.4 121.2 127.6ZM122 133.2C122.8 133.2 122.4 132.4 122.4 132C121.6 132 122 132.8 122 133.2ZM122 126C124 126 123.2 124.4 122.4 124.8C122.4 125.2 122 125.6 122 126ZM123.6 131.2C124 130.4 124.4 129.6 124.4 128.8C123.6 128.8 122.4 131.2 122.4 132C122.8 131.6 123.2 131.2 123.6 131.2ZM124.4 128.8C125.2 128.8 125.2 128 125.2 127.6C124.4 127.6 124.4 128.4 124.4 128.8ZM124.4 120.8C124.4 121.6 125.2 121.6 125.2 121.2C125.2 120.4 125.2 120.4 124.4 120.8ZM129.6 120C130.8 118 127.6 122 127.2 122.4C126.8 123.6 125.2 126 125.2 127.6C126.8 127.2 128.8 121.2 129.6 120ZM125.2 120.4C125.2 119.6 125.6 120 125.2 120.4V120.4ZM127.6 116.4C126.8 116 127.6 116 127.6 116.4V116.4ZM127.6 118.4C126.8 118.8 127.2 119.2 127.6 118.4V118.4ZM127.6 118.4C128 117.6 128.4 118.4 127.6 118.4V118.4ZM129.2 112.4C129.6 112.8 129.6 112 129.2 112.4V112.4ZM129.6 119.2C130.4 119.2 130 118.4 130.4 118C129.2 118 129.6 118.4 129.6 119.2ZM130.4 118C131.2 117.6 130.8 117.2 130.8 116.4C130 116.8 130.4 117.2 130.4 118ZM130.8 116.4C131.6 116.4 131.6 115.6 131.6 115.2C130.8 115.2 130.8 116 130.8 116.4ZM131.6 115.2C132.4 115.2 132 114.4 132 114C131.2 114 131.6 114.8 131.6 115.2ZM132 114C133.2 114 132.8 113.2 132.8 112.8C132 112.8 132.4 113.6 132 114ZM133.6 112C133.6 111.6 132.8 111.6 132.8 112C132.8 112.8 132.8 112.8 133.6 112ZM136 62C136.4 58.8 138 53.2 135.2 50.8C130.8 47.2 122 54 118.8 56.8C107.6 65.2 98.8 78.4 91.2 90C75.2 115.6 62.8 144.8 53.2 173.6C50.8 180.4 48.4 185.2 58 182C63.6 179.6 68.8 174.8 73.6 170.8C84.4 162.4 94.8 152 102.4 140.8C117.6 116.4 133.2 91.2 136 62ZM80 175.6C80 176 79.6 176 79.6 176.4C79.6 176 79.6 176 80 175.6ZM90.4 82.4C90 82 90 82 90.8 81.6C90.4 82 90.4 82 90.4 82.4ZM96.4 73.2C96.4 72.8 96.8 72.8 96.8 72.8C96.8 72.8 96.8 73.2 96.4 73.2ZM92.4 79.6C92.4 79.6 92.4 79.2 92.8 79.2C92.4 79.6 92.4 79.6 92.4 79.6ZM104.4 161.2C104.8 160.4 105.6 160 106.4 159.6C106.4 161.2 104.4 162.8 103.2 163.6C103.2 161.6 104.4 162.4 104.4 161.2ZM104.4 160.8C104.4 161.2 104.4 160.8 104.4 160.8V160.8ZM102.4 162.4C102.4 160.8 104 159.6 105.2 159.2C105.2 160.8 104 160.4 103.6 161.6C103.6 162.4 103.2 162.4 102.4 162.4ZM103.6 161.6C103.6 161.6 104 161.6 103.6 161.6V161.6ZM80.4 182.8C80.8 182.8 80.8 182.8 80.4 182.8V182.8ZM107.2 159.2C106.8 158 106.8 157.6 108 158C108.4 158.4 108 158.8 107.2 159.2ZM107.2 158C106.8 158 107.2 157.6 107.2 158V158ZM92.4 172.8C93.2 173.2 93.2 173.2 92.4 173.2C91.6 173.2 91.6 172.4 92.4 172.8ZM102.4 164.4C102.4 164 102.8 163.6 103.2 163.6C103.2 164 102.8 164 102.4 164.4ZM102.4 164.4C102.4 164.4 102.4 164 102.4 164.4V164.4ZM106.4 159.6C106.4 159.2 106.8 159.2 107.2 159.2C106.8 159.6 106.8 159.6 106.4 159.6ZM107.2 159.2C107.2 159.2 107.2 158.8 107.2 159.2V159.2ZM102.4 162.8C102 163.2 103.2 162 102.4 162.8V162.8ZM105.6 158.4C105.6 158.8 105.6 159.2 105.2 159.2C105.2 158.8 105.2 158.4 105.6 158.4ZM105.6 158.4C105.6 158 106 158 106.4 158C106.4 158 106 158.4 105.6 158.4ZM106.8 157.2C105.6 157.6 108 157.2 106.8 157.2V157.2ZM106.4 157.6C106.4 158 106.4 157.6 106.4 157.6V157.6ZM20.4 106.8C20 106.8 21.6 106 20.4 106.8V106.8ZM20.8 106C20.4 106.4 20.8 106.4 20.8 106V106ZM21.2 106C20.4 107.2 21.6 105.6 21.2 106V106ZM26.4 96.8C25.6 95.6 26.8 97.2 26.4 96.8V96.8ZM26 96.4C25.6 96.8 26 96.4 26 96.4V96.4ZM72.8 112C73.2 111.6 73.2 110 73.6 111.2C73.6 112 73.6 112 72.8 112ZM72.8 112C72.8 112.4 72.8 112.4 72.8 112V112ZM72.8 112.4C72 112.8 73.6 111.6 72.8 112.4V112.4ZM74.4 108.8C74.4 108.8 74.8 108.8 74.8 108.4C74.8 108.8 74.8 108.8 74.4 108.8ZM74.8 108.4C74.8 108 74.8 108 74.8 108.4V108.4ZM75.6 108C75.6 108.4 75.6 108 75.6 108V108ZM74.8 107.6C74.8 107.6 74.8 107.6 75.2 107.6H74.8ZM75.6 107.6C75.2 107.6 75.2 107.6 75.2 107.6C75.2 107.6 75.2 107.6 75.6 107.6ZM83.2 92.4C83.2 92 84 93.6 83.2 92.4V92.4ZM57.2 131.2C56.8 131.2 56.8 131.2 57.2 131.2V131.2ZM57.2 131.2C57.2 131.2 57.6 132 57.2 131.6C57.2 131.2 57.2 131.2 57.2 131.2ZM56.8 131.2C56.8 131.6 56.8 131.2 56.8 131.2V131.2ZM136.719 213.2C138.319 226.4 125.919 242 117.919 251.6C114.719 255.6 109.119 263.6 103.119 262.8C99.1188 262 92.3187 256.8 91.1187 253.2C88.7187 246.8 92.3187 238.8 95.1187 233.2C96.7188 230.4 100.319 226.8 101.119 223.6C101.519 220.4 101.519 222.4 98.7188 219.6C95.1187 216 94.7187 211.2 97.1188 206.4C97.9188 204.4 103.519 196.4 106.319 197.2C106.319 197.6 106.319 198 105.919 198.4C107.519 197.2 130.319 203.6 129.519 204C129.119 204 125.119 203.2 125.119 204.4C125.519 205.2 131.119 206.4 132.319 206.8C134.719 208.4 136.319 210.4 136.719 213.2ZM120.719 202.8C119.919 203.2 123.519 204 124.719 203.2C123.119 202.4 122.319 202 120.719 202.8ZM113.919 207.6C112.719 208.4 111.919 209.6 111.119 210.8C113.119 210.4 115.119 206.8 113.919 207.6ZM111.119 210.8C110.719 210.8 110.319 210.8 110.319 211.2C110.719 211.2 111.119 211.2 111.119 210.8ZM110.319 211.2C109.919 211.2 109.919 211.6 109.919 212C110.319 212 110.319 211.6 110.319 211.2ZM109.919 212C109.519 212 109.119 212 109.119 212.4C109.519 212.4 109.919 212.4 109.919 212ZM103.519 222.4C103.119 223.2 104.319 222.4 103.519 222.4V222.4ZM103.119 201.6C102.319 202 103.519 201.6 103.119 201.6V201.6ZM99.5188 217.2C99.9188 217.6 101.919 220 103.119 219.6C106.319 218.8 97.1188 214.8 99.5188 217.2ZM118.319 235.6C118.719 235.6 118.719 235.2 118.719 234.4C117.919 234.8 118.319 235.2 118.319 235.6ZM118.319 232.4C117.919 232 118.719 233.2 118.319 232.4V232.4ZM119.119 234.4C118.719 235.2 119.519 233.6 119.119 234.4V234.4ZM121.519 230.8C122.319 230 120.719 230 120.719 230.8C121.119 231.2 121.119 231.2 121.519 230.8ZM120.719 227.6C120.719 227.2 121.119 228.4 120.719 227.6V227.6ZM121.919 226C121.919 225.2 121.919 225.2 121.519 226C121.119 226.8 121.919 226.8 121.919 226ZM122.719 224.4C121.919 224.4 121.919 224.8 121.919 225.6C122.719 225.2 122.719 224.8 122.719 224.4ZM122.319 228.4C121.919 228.8 123.519 228 122.319 228.4V228.4ZM122.719 228C123.119 227.6 123.519 227.2 123.119 227.2C122.719 227.2 122.319 227.6 122.719 228ZM123.919 225.6C124.719 225.2 124.319 224.8 124.319 224.4C123.519 224.4 123.919 224.8 123.919 225.6ZM127.519 218.8C128.719 215.2 126.719 209.6 123.119 207.2C121.519 206 115.919 204.8 114.719 207.6C115.519 206 118.719 208.4 118.719 208.8C119.919 211.2 117.919 212.4 117.119 214.4C113.919 218.8 111.119 223.6 108.719 228.8L101.919 249.6C106.719 249.6 113.519 235.6 115.119 232.4C117.919 228.4 120.319 224 122.319 219.6C123.119 218 123.119 214 124.319 212.8C124.319 213.2 123.919 224 122.719 224C123.519 224 123.919 221.6 124.319 221.6C124.719 227.2 126.719 220.8 127.519 218.8ZM173.109 223.6C173.109 223.6 173.509 223.6 173.109 223.6V223.6ZM205.909 199.6C206.309 200.4 207.509 206.4 206.709 206.4C205.909 206.8 205.509 203.6 205.109 203.2C203.509 205.2 204.709 206.8 201.509 204.8C199.109 202.8 199.109 198.8 198.709 196.4C198.309 194.8 198.309 189.6 195.909 188.8C193.509 187.6 189.509 192.4 188.309 194C182.309 200.4 177.909 208.4 173.509 215.6C171.509 219.2 163.909 229.2 165.109 233.6C165.509 233.2 177.509 211.6 177.509 211.2C178.309 212.4 173.509 220.8 173.109 222.4C172.709 223.2 173.109 223.6 173.109 224.4C172.309 225.2 171.909 224.8 171.109 225.6C170.309 227.2 169.909 228.8 169.509 230H169.909C170.309 230.8 169.909 231.2 169.509 231.2L169.109 230.8C168.709 232.8 168.309 235.2 167.109 238C163.109 247.2 159.509 256.4 156.709 266.4C156.309 268 157.109 270.4 154.309 269.2C151.909 268 153.109 264.8 153.509 262.4C151.909 261.6 152.309 267.6 151.509 268.4C151.909 267.6 144.709 263.2 144.709 263.2C142.309 260.4 144.309 258.8 145.109 254.8C146.709 246.4 146.309 237.6 147.109 229.2C147.509 224.8 148.309 204.4 151.509 203.2C159.909 200 157.909 222 158.709 222C160.709 221.6 163.109 214.8 164.309 212.8C166.709 208.4 169.109 204 171.909 200C175.909 194 180.709 187.2 187.109 183.2C193.509 179.2 195.909 182.4 200.709 186.4C201.109 187.2 202.309 186.8 203.509 188.4C205.509 191.2 205.509 196.4 205.909 199.6ZM172.309 223.6C171.909 224.4 172.709 222.8 172.309 223.6V223.6ZM150.309 256.8C150.709 256.8 150.709 256.4 150.309 256C149.909 256 149.909 256.4 150.309 256.8ZM151.109 254.8C151.509 255.2 151.109 254 151.109 254C150.709 254.4 150.709 254.4 151.109 254.8ZM151.909 252.8C155.109 247.6 148.309 250.4 150.309 253.2C151.109 252.4 151.509 253.6 151.909 252.8ZM154.709 257.2C154.309 257.6 155.509 256.4 154.709 257.2V257.2ZM155.109 257.2C155.909 256.8 155.909 256.4 155.509 256C155.109 256 155.109 256.4 155.109 257.2ZM156.309 254.8C155.909 254.4 156.309 254.4 156.309 254.8V254.8ZM157.509 258C157.109 257.6 157.909 257.6 157.509 258V258ZM158.709 255.2C159.109 254.8 159.109 254.4 158.709 254C158.309 254 158.309 254.4 158.709 255.2ZM158.309 248.8C158.709 249.2 158.709 249.2 159.109 248.8C158.709 248 158.709 248 158.309 248.8ZM159.109 247.2C159.109 246.4 159.509 247.6 159.109 247.2V247.2ZM159.509 253.2C159.109 253.2 160.309 252.8 159.509 253.2V253.2ZM159.909 251.6C160.309 251.6 160.309 251.2 160.309 250.8C159.509 250.8 159.509 251.2 159.909 251.6ZM159.909 245.2C159.909 246 159.909 246 160.309 245.6C160.309 244.8 159.909 244.8 159.909 245.2ZM161.109 242.8C160.309 243.2 160.309 243.6 160.709 244C161.109 244 161.109 243.6 161.109 242.8ZM161.109 242C160.709 244.4 161.109 240.8 161.109 242V242ZM161.109 249.6C160.709 250.8 161.509 247.2 161.109 249.6V249.6ZM161.109 248.8C161.909 248.4 161.509 248 161.509 247.6C160.709 247.6 161.109 248 161.109 248.8ZM161.509 247.2C162.309 247.2 162.309 246.8 162.309 246C161.509 246.4 161.509 246.8 161.509 247.2ZM162.309 246C163.109 245.6 163.109 244.8 163.109 244.4C162.309 244.4 161.909 245.2 162.309 246ZM162.309 239.6C163.109 239.6 162.709 238.8 163.109 238.4C161.909 238.4 162.309 239.2 162.309 239.6ZM163.109 238.4C164.709 238.4 162.709 235.2 163.109 237.2C163.109 237.6 163.109 238 163.109 238.4ZM164.709 234C163.509 234.4 163.509 235.2 163.509 236.4C163.909 236.4 165.109 233.6 164.709 234ZM163.109 244C163.909 244 163.509 243.6 163.509 242.8C162.709 243.2 163.109 243.6 163.109 244ZM163.509 242.8C164.309 242.4 164.309 241.6 164.309 240.8C163.509 241.6 163.509 242 163.509 242.8ZM164.309 240.8C165.109 240.8 164.709 240 164.709 239.6C163.909 240 164.309 240.4 164.309 240.8ZM168.709 231.2C167.909 231.6 168.309 232 168.309 232.4C168.709 232.4 168.709 232 168.709 231.2ZM167.909 232.8C167.109 232.8 167.509 233.2 167.509 234C168.309 233.6 167.909 233.2 167.909 232.8ZM167.509 234C166.709 234 166.709 234.8 166.709 235.2C167.509 235.2 167.509 234.4 167.509 234ZM166.709 235.2C166.309 235.6 165.909 236 166.309 236.4C166.709 236 167.109 235.6 166.709 235.2ZM165.909 237.2C165.509 237.6 165.509 237.6 165.509 238.4C166.309 238 166.309 237.6 165.909 237.2ZM165.509 238.4C164.709 238.4 165.109 239.2 165.109 239.6C165.509 239.6 165.509 238.8 165.509 238.4ZM194.709 186C195.909 185.6 194.309 184.4 193.909 184.4C192.709 183.6 189.109 185.6 188.309 186.4C184.309 189.2 181.509 193.6 178.709 197.2C173.109 204 169.509 211.2 165.109 218.4C162.309 223.2 160.309 228.4 157.909 233.6C155.509 239.2 152.709 244 152.709 250C155.909 246.4 157.509 239.2 159.909 234.4C162.709 228 165.509 221.6 169.109 215.6C175.909 203.6 182.309 192.4 194.709 186ZM204.309 201.6C205.109 198 205.109 194 202.709 191.6C201.509 192.4 203.509 201.6 201.109 200.4C199.909 202.8 203.509 203.2 204.309 201.6ZM169.909 230C169.909 230 170.309 230 169.909 230V230ZM173.109 222.4C173.109 222.4 173.109 222 173.109 222.4V222.4ZM173.909 222.4C173.909 222.4 173.909 222 173.909 222.4V222.4ZM173.109 223.6C172.709 222.4 173.109 222 173.909 222.4C173.909 222.8 173.909 223.2 173.109 223.6ZM170.709 229.2C170.309 227.2 171.109 231.6 170.709 229.2V229.2ZM173.909 221.2C173.909 221.2 173.909 220.8 173.909 221.2V221.2ZM173.909 222.4C173.509 221.2 173.909 220.8 174.709 221.2C174.709 221.6 174.309 222 173.909 222.4ZM191.509 196C191.909 196.4 191.909 196 191.509 196V196ZM176.309 218C175.909 217.6 176.709 218.4 176.309 218V218ZM175.109 220.4C173.909 220.4 175.509 220.4 175.109 220.4V220.4ZM174.709 220.8C174.309 220.8 174.709 221.2 174.709 220.8V220.8ZM171.909 226.4C170.709 226.8 171.909 226.4 171.909 226.4V226.4ZM171.109 226H171.509C171.509 226 171.509 226.4 171.109 226ZM170.709 227.6C170.709 227.6 170.709 227.2 170.709 227.6V227.6ZM171.109 228C169.909 228 171.509 228 171.109 228V228ZM441.431 120C444.631 122 434.231 120.4 434.231 120.4C429.831 119.6 425.431 119.2 420.631 118.4C411.431 116.4 401.431 115.2 391.831 114C384.631 113.2 375.031 111.6 367.831 112.8C365.031 113.2 363.031 114 360.231 114C357.831 114 353.031 112.8 351.431 114.8C353.431 112.4 349.831 114 348.631 114C346.631 113.6 344.231 114 342.231 114C336.231 114.4 330.631 114.4 324.631 114.4C313.031 114 301.031 115.6 289.831 116.8C284.631 117.6 276.231 116.8 271.431 118.8C268.631 119.6 267.431 122.8 265.831 125.6C260.631 138.4 257.431 151.6 250.631 163.6C255.431 150.4 260.631 137.2 265.431 124C264.631 122.8 259.431 136.4 259.031 137.2C257.031 142 255.431 147.2 253.431 152C249.831 162 246.231 171.6 243.031 181.6C239.831 190 235.031 197.2 233.831 206.4C233.031 215.2 231.031 224 230.231 233.2C227.831 252 227.031 271.6 228.631 290.4C229.031 294.8 229.031 300 230.631 304.4C231.031 305.6 234.231 308.4 234.231 309.2C234.631 311.6 229.831 312.8 227.431 312C213.031 307.2 217.031 279.2 217.031 268C217.831 248.8 219.431 229.2 222.231 210C225.031 190.8 229.031 172 233.031 153.2C235.031 144.4 237.031 135.6 238.231 126.8C238.631 126 239.831 119.6 239.831 119.6C239.031 118.4 235.031 119.6 233.431 120C217.831 121.6 202.231 126.4 186.631 129.6C178.631 131.2 170.231 131.2 162.231 133.6C161.431 133.6 153.031 137.6 152.631 136.8C153.031 137.2 157.431 137.6 156.231 138.8C155.031 138.8 143.031 138 143.031 138.4C143.431 136 146.631 137.2 147.831 136.8C148.631 136.4 149.031 135.6 148.631 135.2C147.831 133.6 148.631 133.2 151.031 133.2C156.231 130 165.031 128.8 171.031 127.2C183.431 123.6 196.231 120.8 208.631 118.4C215.431 116.8 222.631 115.6 229.431 114.4C235.431 113.2 241.031 114.4 242.631 108.4C246.631 95.2 248.631 81.2 252.631 68C256.231 55.2 260.631 42.8 265.031 30.4C266.631 25.2 268.631 14 275.431 13.2C279.031 12.4 285.831 16.8 287.831 20C290.631 24 289.831 29.2 289.831 33.6C289.431 47.2 285.031 58.8 283.031 71.6C283.831 66.8 284.231 62.4 285.031 57.6C284.231 60.8 283.031 64.4 282.231 67.6C282.231 66.8 282.231 65.6 281.431 64.8C280.631 68.8 270.231 107.6 270.231 107.6C272.631 107.6 280.631 72.4 281.831 68.4C282.231 76.4 279.031 85.6 277.031 93.2C275.831 96.8 272.631 102 273.031 105.2C273.031 109.2 276.231 107.6 280.631 107.2C300.231 106 319.431 103.6 338.631 102.8C373.831 102 410.631 101.2 441.431 120ZM285.831 55.2C285.831 54 285.431 56 285.431 56C285.431 57.2 286.231 56.4 285.831 55.2ZM152.631 136C152.631 135.2 153.431 136.8 152.631 136V136ZM226.631 212.8H226.231C226.631 213.2 226.631 213.2 226.631 212.8ZM223.431 292.8C223.831 291.6 223.831 290.8 223.431 289.6C223.431 289.6 223.431 289.6 223.031 289.2C223.031 286 223.031 283.2 223.031 280C223.031 279.6 223.031 279.2 223.031 278.8C222.231 278 222.231 277.2 222.231 276.4C222.231 270.8 222.231 265.2 222.231 259.6C222.231 259.2 222.231 258.4 222.631 258C223.031 257.2 223.031 256 223.031 255.2L222.631 254.8C222.631 254.8 222.631 255.2 222.231 255.2C221.831 256 221.831 256.8 221.831 257.6C221.831 264.4 221.831 271.2 221.831 278C221.831 278.4 221.831 279.2 221.831 279.6C222.631 280 222.231 280.8 222.231 281.6C222.231 283.6 222.231 285.6 222.231 287.6C222.231 288 222.631 288.4 222.631 289.2C222.631 289.2 222.631 289.2 223.031 289.2C223.031 290.4 223.031 291.6 223.031 292.8C223.031 292.8 223.431 292.8 223.431 293.2C223.431 292.8 223.431 292.8 223.431 292.8ZM224.231 296.8C224.231 296.4 224.231 296.4 224.231 296.4C224.231 296 224.231 296 224.231 295.6C224.231 295.6 224.231 295.6 224.231 295.2H223.831C223.431 295.6 223.831 296.4 223.831 296.8H224.231ZM226.231 220.4C226.631 219.6 226.231 218.8 226.231 218C226.231 216.8 226.631 216 226.631 215.2C227.031 215.2 226.631 214.8 226.631 214.8H226.231C225.831 215.2 225.431 215.6 225.431 216.4C225.431 217.2 225.831 218.4 225.431 219.6C225.031 220.4 225.031 221.2 225.031 222C225.031 223.2 225.031 224.4 224.631 225.2C224.231 226.4 224.231 227.2 224.231 228.4C224.231 229.2 224.631 229.6 224.231 230C223.431 231.6 223.831 232.8 223.831 234C223.431 234.8 223.831 235.2 223.431 235.6C223.031 236.4 223.031 236.8 223.031 237.6C223.031 240 223.031 242.8 223.031 245.6C222.631 245.6 222.631 245.6 222.631 246C222.231 248.4 222.231 250.8 222.631 253.6C222.631 253.6 223.031 253.6 223.031 253.2C223.031 251.6 222.631 250 223.031 248.4C223.431 247.6 223.031 246.4 223.031 245.6C223.431 245.6 223.431 245.2 223.431 244.8C223.431 243.2 223.431 241.2 223.831 239.6C223.831 238.8 223.431 238 223.831 237.6C224.631 236.4 224.231 235.2 224.231 234C224.231 233.6 224.231 232.8 224.231 232.4C225.031 231.2 224.631 230 225.031 228.4C225.031 228 225.031 227.6 225.031 227.2C225.831 226.4 225.431 225.6 225.431 224.4C225.431 223.2 225.431 221.6 226.231 220.4ZM227.031 211.6C227.031 212 227.431 212 227.431 211.6C227.431 211.6 227.431 211.6 227.031 211.6ZM229.031 310.8C228.631 310.8 228.631 310.8 228.231 310.8C228.631 310.8 228.631 311.2 228.631 311.2C229.031 311.2 229.031 311.2 229.431 311.2C229.031 310.8 229.031 310.8 229.031 310.8ZM271.031 85.6C271.031 85.2 271.031 85.2 271.031 85.2C271.031 85.6 271.031 85.6 271.031 85.6ZM271.831 84.4C271.831 84 271.831 83.6 271.831 83.6C271.831 83.2 271.831 82.8 271.831 82.8C271.431 82.8 271.431 82.8 271.431 82.8C271.431 83.2 271.431 83.6 271.431 84C271.431 84 271.431 84.4 271.831 84.4ZM272.231 81.2L272.631 80.8H272.231V81.2ZM273.031 83.6V83.2C273.031 82.8 273.031 82.8 273.031 82.8C273.031 82.8 272.631 82.8 272.631 83.2L273.031 83.6ZM273.031 79.2C273.031 78.8 273.431 78.8 273.431 78.4C273.431 78 273.031 77.6 273.031 77.6H272.631C272.631 78 272.631 78.4 272.631 78.8L273.031 79.2ZM273.431 81.6C273.831 81.6 273.831 81.6 273.831 81.2V80.8C273.431 80.8 273.431 80.8 273.431 81.2V81.6ZM273.431 76.4C273.831 76.4 273.831 76.4 273.831 76C273.831 76 273.831 76 273.831 75.6C273.431 75.6 273.431 76 273.431 76V76.4ZM275.031 76.4C275.031 76.4 275.031 76.4 275.031 76V75.6C274.631 75.6 274.631 76 274.631 76C274.631 76.4 274.631 76.4 275.031 76.4ZM275.431 74L275.831 73.6C275.831 73.6 275.831 73.2 275.431 73.2C275.431 73.6 275.431 73.6 275.431 74ZM276.231 64.4C276.231 64.4 276.231 64.4 276.231 64H275.831C275.831 64.4 276.231 64.4 276.231 64.4ZM276.631 68C277.031 68 277.031 68 277.031 67.6C277.031 67.6 277.031 67.2 276.631 67.2V67.6C276.631 68 276.631 68 276.631 68ZM283.831 39.6C283.831 40 283.831 40 284.231 39.6H283.831ZM283.831 51.6C283.831 52 283.831 52 283.831 52H284.231L283.831 51.6ZM282.231 59.2C281.831 59.6 281.831 60 282.231 60.4C283.431 60 282.231 58.4 282.231 59.2ZM281.031 24.4V24.8C281.031 25.2 281.031 25.6 281.031 26C281.031 26 281.431 26 281.431 26.4C281.431 26 281.431 26 281.431 25.6C281.431 25.2 281.431 24.8 281.431 24.4C281.431 24 281.431 24 281.431 24C281.031 24 281.031 24.4 281.031 24.4ZM280.631 22.8C280.631 23.2 280.631 23.2 281.031 22.8H280.631ZM280.631 44.8C280.631 45.6 280.631 46.4 280.631 47.2C280.631 47.6 280.631 47.6 280.631 47.6L281.031 47.2C281.031 46.8 281.031 46.8 281.031 46.4C281.031 46 281.031 45.2 281.031 44.8H280.631ZM279.831 49.2C279.831 49.6 279.831 49.6 279.831 50C279.831 50.4 279.831 50.4 280.231 50.8C280.231 50.4 280.231 50.4 280.231 50C280.231 49.6 280.231 49.6 280.231 49.6C280.231 49.2 280.231 49.2 280.231 49.2C279.831 49.2 279.831 49.2 279.831 49.2ZM279.031 54C279.031 54.4 279.031 54.4 279.031 54.8C279.031 54.8 279.031 55.2 279.431 55.2C279.431 55.2 279.431 54.8 279.831 54.8C279.831 54.4 279.831 54.4 279.831 54C279.431 54 279.431 54 279.431 53.6C279.431 54 279.031 54 279.031 54ZM278.631 57.6V58C278.631 58.4 278.631 58.4 279.031 58.4C279.031 58.4 279.031 58.4 279.031 58V57.6C279.031 57.2 279.031 56.8 278.631 57.2C278.631 57.2 278.631 57.2 278.631 57.6ZM278.231 61.6C278.231 61.6 278.231 61.6 278.231 61.2C278.231 61.6 277.831 61.6 277.831 61.6H278.231ZM269.831 40.4C269.831 41.2 269.831 41.6 269.831 42H269.431V42.4C269.431 42.8 269.431 42.8 269.831 43.2C269.831 42.8 269.831 42.8 269.831 42.4C270.231 42.4 270.231 42 270.231 42C271.031 41.2 270.631 41.2 269.831 40.4ZM267.831 41.6C267.831 41.6 267.431 41.6 267.431 42L267.831 42.4L268.231 42C268.231 41.6 267.831 41.6 267.831 41.6ZM265.031 42.8C265.031 43.2 265.031 43.2 265.031 43.6C265.431 43.6 265.431 43.2 265.431 43.2C265.431 42.8 265.431 42.8 265.431 42.8C265.431 42.8 265.431 42.8 265.431 42.4C265.831 42.4 266.231 42 266.231 41.6C266.231 41.6 266.231 41.2 266.231 40.8C266.231 40.8 266.231 40.8 266.231 40.4C267.031 40.4 266.631 40 266.631 39.2H267.031C267.431 39.2 267.431 38.8 267.431 38.4C267.431 38.4 267.031 38.4 267.031 38C267.031 38.4 267.031 38.4 267.031 38.4C267.031 38.8 267.031 39.2 267.031 39.2H266.631C266.231 39.6 266.231 40 266.231 40.4C266.231 40.4 266.231 40.4 266.231 40.8C265.831 40.8 265.431 41.2 265.431 41.6C265.431 41.6 265.431 42 265.431 42.4C265.431 42.4 265.431 42.4 265.431 42.8H265.031ZM267.431 43.6L267.031 43.2C267.031 43.6 267.031 43.6 267.031 43.6H267.431ZM266.631 44.8H266.231C266.231 44.8 266.231 44.8 266.631 45.2C266.631 44.8 266.631 44.8 266.631 44.8ZM265.431 48C265.031 48 265.031 48 265.031 48C265.031 48 265.031 48 265.031 48.4C265.431 48 265.431 48 265.431 48ZM264.231 46C263.831 46 263.831 46 263.831 46.4C263.831 46.8 263.831 46.8 263.831 46.8H264.231C264.231 46.4 264.231 46 264.231 46C264.231 45.6 264.231 45.6 264.231 45.6C264.631 45.6 265.031 45.6 265.031 44.8C264.631 44.8 264.631 44.8 264.631 44.8H264.231C264.231 45.2 264.231 45.6 264.231 45.6V46ZM263.031 49.2C262.631 49.2 262.231 49.6 262.231 50H262.631H263.031C263.031 49.6 263.031 49.2 263.031 49.2V48.8C263.431 48.8 263.431 48.8 263.431 48.4C263.431 48 263.431 48 263.431 48H263.031C263.031 48.4 263.031 48.8 263.031 48.8V49.2ZM263.431 55.6C263.031 55.6 263.031 56 263.431 56C263.431 56 263.431 56 263.431 55.6ZM262.631 58.4C263.031 58.4 262.631 58.4 262.631 58C262.631 58.4 262.631 58.4 262.631 58.4C262.631 58.8 262.631 58.8 262.631 58.4ZM261.831 52.8C261.031 52.8 261.031 53.2 261.031 53.6C261.031 53.6 261.031 54 261.431 54V53.6C261.831 53.6 261.831 53.2 261.831 52.8C262.631 52.4 262.231 52 262.231 51.2C262.231 51.2 262.231 51.2 261.831 51.2C261.831 52 261.831 52.4 261.831 52.8ZM262.231 60V59.6C261.831 59.6 261.831 59.6 261.831 60V60.4C262.231 60.4 262.231 60 262.231 60ZM257.031 67.6C256.231 68 256.631 68.8 256.631 69.2C257.031 69.2 257.031 69.2 257.031 69.2C257.031 68.8 257.031 68.4 257.031 67.6C257.431 67.6 257.831 67.6 257.831 67.2C257.831 66.4 257.831 66 257.831 65.2C257.831 64.8 258.231 64.8 258.231 64.8C258.631 63.6 258.631 62.4 259.031 61.6C259.831 60.8 259.831 59.6 259.831 58.8C259.831 58.8 259.831 58.8 259.831 58.4C260.231 57.6 261.031 56.4 261.031 55.6C261.031 55.2 260.631 55.2 260.631 54.8C260.631 55.2 260.631 55.2 260.631 55.2C259.831 56.4 259.831 57.6 259.831 58.8C259.431 58.8 259.431 58.8 259.431 58.8C259.031 60 259.031 61.2 258.231 62C257.831 63.2 257.831 64 257.831 65.2C257.431 65.2 257.431 65.2 257.431 65.6C257.031 66.4 257.031 66.8 257.031 67.6ZM256.231 71.2C255.831 71.2 255.831 71.2 256.231 71.6V71.2ZM255.031 75.6L254.631 76C254.631 76 254.631 76.4 255.031 76.4C255.031 76.4 255.031 76.4 255.031 76C255.031 76 255.031 76 255.031 75.6ZM255.031 82.8C254.631 83.6 254.631 84.8 254.231 86C253.831 86 254.231 86 254.231 86C254.231 86.4 254.231 86 254.631 86L255.031 85.6C255.431 83.6 256.231 82 255.831 80H256.231C256.631 79.2 257.031 78 257.031 77.2C257.031 77.2 257.031 76.8 257.031 76.4C257.031 76 257.031 76 257.031 75.6C256.631 75.6 256.631 76 256.631 76C255.831 77.2 255.831 78.4 255.831 80C255.431 80 255.431 80.4 255.431 80.4C255.031 81.2 255.031 82 255.031 82.8ZM254.231 87.2C253.831 88 253.031 88.8 253.431 90C253.431 90 253.431 90.4 253.431 90.8C253.831 90.4 253.831 90.4 253.831 90.4C253.831 89.6 254.231 89.2 254.231 88.8C254.631 88.4 254.631 88 254.631 87.6C254.631 87.6 254.631 87.2 254.231 87.2ZM252.631 92.8V93.2C252.631 93.6 253.031 93.6 253.031 94C253.031 93.6 253.031 93.6 253.431 93.2V92.8C253.031 92.8 253.031 92.4 253.031 92.4L252.631 92.8ZM250.231 95.2C250.231 95.6 250.231 95.6 250.231 96V96.4C250.631 96.4 250.631 96 250.631 95.6C250.631 95.2 250.631 95.2 250.231 94.8C250.231 95.2 250.231 95.2 250.231 95.2ZM250.631 101.2C251.031 102.8 249.831 104 250.231 105.6C250.231 106 250.231 106 250.231 106.4C250.631 106 250.631 106 250.631 105.6C251.031 104.4 251.831 103.2 251.431 101.6C252.231 100.4 251.831 99.2 251.831 98H252.231L252.631 97.6C252.631 96.8 252.631 96 252.631 95.2H252.231C252.231 95.2 252.231 94.8 252.231 95.2C252.231 96 252.231 97.2 252.231 98C251.831 98 251.831 98 251.831 98C251.831 98 251.431 98 251.431 98.4C251.031 99.2 251.831 100.4 250.631 101.2ZM249.831 97.6C249.831 97.6 249.431 97.6 249.431 98L249.831 98.4V98V97.6ZM249.831 108C249.431 108.8 248.631 109.2 249.031 110C249.031 110.4 249.031 110.4 249.031 110.4V110.8L249.431 110.4C249.431 109.6 250.231 109.2 250.231 108C249.831 108 249.831 108 249.831 108ZM248.231 127.2C248.231 127.6 248.231 128.4 248.231 128.8H248.631C248.631 128.4 248.631 128.4 248.631 128V127.6C248.631 127.2 248.631 127.2 248.631 127.2H248.231ZM247.831 130.4C247.431 130.8 247.431 130.8 247.431 131.2C247.431 131.6 247.831 131.6 247.831 132C247.831 131.6 248.231 131.6 248.231 131.2C248.231 130.8 248.231 130.8 247.831 130.4ZM247.031 110C247.031 110.4 247.031 110.4 247.031 110.8C247.431 110.4 247.431 110.4 247.431 110C247.431 110 247.431 110 247.431 109.6C247.431 109.6 247.431 109.2 247.031 109.2C247.031 109.2 247.031 109.6 247.031 110ZM247.431 134L247.031 133.6V134C247.031 134.4 247.031 134.4 247.031 134.4C247.431 134.4 247.431 134 247.431 134ZM249.831 129.6C248.631 134.8 247.431 140.4 246.231 145.6C245.831 148.4 242.631 156.4 243.831 158.8C243.031 157.2 248.631 145.2 249.431 143.2C252.231 135.2 253.831 126.4 257.031 118.8C258.631 115.6 253.831 116.4 252.631 118C251.031 120 250.631 127.2 249.831 129.6ZM243.031 148.8C243.031 148.8 243.031 149.2 243.431 149.2C243.431 149.2 243.431 149.2 243.431 148.8C243.431 148.8 243.431 148.8 243.431 148.4L243.031 148.8ZM243.031 160.4C243.031 160 243.431 159.6 243.031 160.4V160.4ZM243.031 138.4C243.031 138.8 243.031 138.8 243.431 139.2C243.431 138.8 243.431 138.8 243.431 138.8C243.431 138.4 243.431 138.4 243.431 138C243.431 138.4 243.031 138.4 243.031 138.4ZM245.831 126.4C245.831 126.8 245.831 126.8 245.831 126.8C245.831 127.2 245.831 127.2 245.831 127.2H246.231C246.231 126.8 246.231 126.8 245.831 126.4ZM245.431 144C245.431 143.2 245.431 142 245.431 141.2C245.031 141.2 245.031 141.6 245.031 142C245.031 142.4 245.031 143.2 245.031 144C245.031 144 244.631 144.4 244.231 144.4C244.231 145.2 244.231 146 244.231 146.8C244.631 146.8 244.631 146.8 245.031 146.4C245.031 145.6 245.431 144.8 245.431 144ZM243.831 134.4C243.831 134.8 243.831 135.6 243.831 136C243.831 136.4 243.831 136.4 243.831 136.4C243.831 136.4 244.231 136.4 244.231 136C244.231 135.6 244.231 134.8 244.231 134C244.631 134 245.031 134 245.031 133.6C245.031 132.8 245.031 132 245.031 131.6C245.031 131.2 245.431 131.2 245.431 131.2C245.831 130.4 245.431 129.6 245.431 128.8C245.431 128.4 245.431 128.4 245.431 128.4C245.031 128.4 245.031 128.4 245.031 128.8C245.031 129.6 245.031 130.4 245.031 131.6C244.631 131.6 244.231 131.6 244.231 132C244.231 132.8 244.231 133.2 244.231 134L243.831 134.4ZM243.031 127.6C243.031 128 242.631 128.8 242.631 129.2C242.631 129.2 242.631 129.6 243.031 129.6L243.431 129.2C243.431 128.8 243.431 128.4 243.431 128.4C243.431 128 243.431 127.6 243.431 127.6V127.2L243.031 127.6ZM241.431 160C241.031 160.4 241.031 162 241.431 162L241.831 161.6C241.831 160.8 241.831 160.8 241.831 160.4L241.431 160ZM241.031 147.6L241.431 148C241.431 148 241.831 147.6 241.431 147.6C241.431 147.2 241.431 147.2 241.431 147.2L241.031 147.6ZM241.831 156.4C241.831 157.2 241.831 158 241.831 158.8C242.231 158.8 242.231 158.8 242.231 158.8C242.231 158 242.231 157.2 242.231 156.8C242.631 156.4 243.031 156 243.031 155.6C243.031 155.2 243.031 154.4 242.631 154H242.231C242.231 154.8 242.231 155.6 242.231 156.4H241.831ZM241.831 144.4V144.8C242.231 144.8 242.231 144.4 242.231 144.4V144C241.831 144 241.831 144 241.831 144.4ZM242.231 142.4C242.631 142.4 242.631 142.8 242.631 142.8C242.631 142.8 243.031 142.4 243.031 142C243.031 141.6 242.631 141.6 242.631 141.2C242.631 141.6 242.631 141.6 242.231 142C242.231 142 242.231 142 242.231 142.4ZM239.431 143.2C239.431 144 239.431 144.8 239.431 145.2V145.6C239.431 145.6 239.431 145.2 239.831 145.2C239.831 144.4 239.831 144 239.831 143.2C239.831 143.2 239.831 143.2 239.831 142.8H240.231C240.631 141.6 240.231 140.8 241.031 140C241.031 138.4 242.231 136.8 241.831 135.2C242.231 135.2 242.231 135.2 242.231 134.8C242.231 134 242.231 133.2 242.231 132C243.031 132 243.031 131.2 243.031 130.8L242.631 130.4C242.631 130.4 242.231 130.4 242.231 130.8C242.231 131.2 242.231 131.6 242.231 132C241.831 132.4 241.831 132.4 241.831 132.8C241.831 133.6 241.831 134.4 241.831 135.2C241.431 135.2 241.431 135.2 241.431 135.6C240.631 136.8 240.631 138.4 240.231 139.6C240.231 140 239.831 140.4 239.831 140.8C239.831 141.2 239.831 142 239.831 142.8C239.831 143.2 239.831 143.2 239.831 143.2C239.431 143.2 239.431 143.2 239.431 143.2ZM241.031 150.4H240.631C240.631 150.4 240.631 150.4 240.631 150.8L241.031 150.4ZM239.831 156.4C239.431 156.4 239.431 156 239.431 156C239.031 156 239.031 156.4 239.431 156.4C239.431 156.4 239.431 156.4 239.831 156.4ZM239.431 167.2L239.031 167.6L239.431 168L239.831 167.6C239.431 167.2 239.431 167.2 239.431 167.2ZM233.831 172.8C234.231 172.4 233.831 171.2 233.831 170.4C233.431 170.4 233.431 170.4 233.431 170.4C233.431 171.6 232.631 172.4 232.631 173.6C232.631 175.2 231.831 177.2 232.231 178.8C232.231 179.2 231.831 179.2 231.831 179.6C231.031 180.8 231.431 182 230.631 183.2C231.031 184.8 230.231 186 230.231 187.2C230.231 188.8 229.431 189.6 229.431 190.8C229.831 192.8 228.631 194.4 228.631 196C227.831 197.2 228.231 198.4 228.231 199.6C228.231 199.6 228.231 199.6 228.231 200C227.831 200 227.431 200.4 227.831 200.8H228.231C228.231 200.4 228.231 200 228.231 200V199.6H228.631C228.631 198.4 229.431 197.6 229.431 196.8C229.831 196.4 229.831 196 230.231 195.6C230.231 194.8 230.231 194 230.231 193.2C230.231 192 231.031 191.6 230.631 190.8C230.231 188.4 231.831 186.4 231.431 184.4V184C232.631 182.8 231.431 181.2 232.631 180C232.631 178.4 233.031 176.8 233.431 175.6C233.431 174.8 233.431 174 233.831 172.8ZM235.831 163.2C235.831 162.8 235.831 162.4 235.831 161.6C235.831 161.6 235.831 161.6 235.431 161.2C235.431 161.2 235.431 161.2 235.431 161.6C235.031 162.8 234.631 164 234.631 165.2C234.631 165.6 234.631 166 234.231 166.4C233.831 166.8 234.231 167.6 233.831 168C233.831 168.4 233.831 168.4 233.831 168.8C234.231 168.8 234.231 169.2 234.231 169.2L234.631 168.8C234.631 167.2 235.431 166 235.431 164C235.431 164 235.831 163.6 235.831 163.2ZM236.231 159.6C236.231 159.6 236.631 159.2 236.631 158.8C236.631 158.4 236.231 158.4 236.231 158C236.231 158 236.231 158 236.231 158.4C236.231 158.8 235.831 159.2 236.231 159.6ZM237.031 157.2C237.031 156.8 237.031 156.8 237.031 156.8C237.031 156.4 237.031 156.4 237.031 156C236.631 156.4 236.631 156.4 236.631 156.4C236.631 156.8 236.631 156.8 237.031 157.2ZM237.431 166.8C237.831 166.4 237.831 166.4 237.831 166H237.431C237.431 166 237.431 166 237.431 166.4C237.431 166.4 237.431 166.4 237.431 166.8ZM237.831 153.6C237.831 153.2 237.831 153.2 237.831 152.8C237.831 152.8 237.831 152.4 237.431 152.4V152.8C237.431 153.2 237.031 153.2 237.431 153.6C237.831 153.6 237.831 153.6 237.831 153.6ZM238.231 162.8C238.231 162.8 238.231 162.4 238.631 162.4C238.231 162.4 238.231 162 238.231 162L237.831 162.4L238.231 162.8ZM238.231 151.2C238.231 150.4 238.231 149.6 238.631 148.8C238.631 148.8 239.031 148.8 239.031 148.4C239.031 148 239.031 147.6 239.031 146.8V146.4C238.631 146.8 238.631 146.8 238.631 146.8C238.631 147.6 238.631 148 238.631 148.8C238.231 149.2 238.231 149.2 238.231 149.2C237.831 150 237.831 150.4 237.831 151.2H238.231ZM239.031 160C239.031 159.6 239.031 159.6 238.631 159.2C238.631 159.6 238.631 159.6 238.631 160C238.631 160 238.631 160 238.631 160.4C239.031 160 239.031 160 239.031 160ZM239.031 170C239.031 169.6 239.031 169.6 239.031 169.2H238.631V170.4H239.031V170ZM243.431 169.2C244.231 168 243.831 167.2 243.431 166C243.431 166 243.431 166 243.431 165.6C243.431 166 243.031 166 243.031 166C243.031 166.8 242.231 167.6 242.231 168.4C242.231 169.6 241.431 170.8 240.631 172C240.231 172 240.231 172 240.231 172C240.231 171.6 240.231 171.6 239.831 171.6V172C240.231 172 240.231 172 240.231 172C240.231 172 240.231 172 240.631 172C240.631 172.4 240.631 172.8 240.231 173.2C239.831 174.4 239.831 176 239.831 177.2C239.431 177.2 239.031 177.6 239.031 178C239.031 178 239.431 178 239.431 178.4C239.431 178.4 239.831 178.4 239.831 178C239.831 178 239.831 177.6 239.831 177.2C239.831 177.2 240.231 177.2 240.231 176.8C241.031 174.4 242.231 171.6 243.431 169.2ZM247.031 163.6C247.031 163.6 247.431 163.6 247.431 163.2C247.431 163.2 247.431 163.2 247.031 163.2C247.031 163.6 247.031 163.6 247.031 163.6ZM247.831 162H248.231C248.231 161.6 247.831 161.6 247.831 161.2C247.831 161.6 247.431 161.6 247.431 161.6C247.431 162 247.831 162 247.831 162ZM249.831 152V151.6C249.831 150.8 249.431 150 249.431 149.2H249.031C248.631 150 248.231 150.4 248.231 151.2C248.231 152 248.231 152.4 247.431 153.2C247.031 153.6 247.031 154 247.031 154.4C246.231 156 245.831 158 245.031 159.6C244.231 161.2 244.231 162.8 243.831 164.4V164.8H244.231C245.031 162.8 246.231 160 247.031 157.2C247.031 157.2 247.031 156.8 247.431 156.4C247.431 156 248.631 155.6 248.631 154.4C248.231 153.6 249.431 153.2 249.831 152ZM250.231 155.6C250.631 155.6 250.631 155.6 250.631 155.2C250.631 155.2 250.631 155.2 250.631 154.8C250.231 154.8 250.231 155.2 250.231 155.2V155.6ZM250.231 150C250.631 150 250.631 150 250.631 150C250.631 149.6 250.631 149.6 250.231 149.6C250.231 149.6 250.231 149.6 250.231 150ZM251.831 152.4V152C251.831 151.6 251.831 151.6 251.831 151.6C251.431 151.6 251.431 152 251.431 152C251.431 152.4 251.431 152.4 251.431 152.8C251.031 152.8 250.631 153.2 250.631 153.6H251.031H251.431C251.431 153.2 251.431 153.2 251.431 152.8C251.431 152.4 251.831 152.4 251.831 152.4ZM252.231 150H252.631C252.631 149.6 252.231 149.6 252.231 149.6C252.231 149.6 252.231 149.6 252.231 150ZM252.231 143.2C251.831 143.2 251.831 143.2 251.831 143.2C252.231 142.4 251.831 141.6 252.631 140.8C253.031 140.4 252.631 139.6 252.631 139.2V138.8C252.231 138.8 252.231 138.8 252.231 139.2C251.431 141.6 250.631 144 249.831 146.4C249.431 146.8 249.431 147.2 249.431 147.6L249.831 148C250.231 147.2 250.231 147.2 250.631 146.8C250.631 147.2 250.631 147.2 250.631 147.6L251.031 148L251.431 147.6C251.431 147.2 251.431 147.2 251.431 146.8C251.831 146.8 251.831 146.4 251.831 146C251.831 145.6 251.831 145.6 251.831 145.2H252.231V144.8C252.631 144.4 252.631 143.6 252.231 143.2ZM253.031 148V147.6C252.631 148 252.631 148 253.031 148ZM257.831 125.2C257.831 125.2 257.831 124.8 257.431 124.8H257.031C256.631 125.6 256.231 126.4 255.831 127.2C255.831 129.2 254.631 131.2 254.231 133.2C253.831 134.4 253.031 135.6 253.431 137.2C253.031 137.2 253.031 137.6 253.031 137.6C252.631 137.6 253.031 138 253.031 137.6C253.031 137.6 253.031 137.6 253.431 137.2H253.831C253.831 137.6 253.831 138 253.831 138L254.231 138.4L254.631 138C254.631 138 254.631 137.6 254.631 137.2C255.031 137.2 255.031 136.8 255.031 136.4C255.031 136 255.031 136 254.631 136C254.231 134.8 255.431 133.6 255.431 132.4C255.431 131.6 256.231 130.8 255.831 130C257.031 128.4 257.031 126.8 257.831 125.2ZM262.231 103.2C264.231 95.2 266.631 88 269.031 80.4C271.031 72 273.031 63.2 274.631 54.4C275.831 48.4 279.831 36.8 277.431 30.4C273.831 32 271.831 40.4 270.631 43.6C267.831 50 265.831 56.4 263.831 62.8C260.231 75.2 257.831 88.4 255.031 101.2C254.231 104.4 251.831 113.6 258.631 109.6C261.431 108.4 261.431 106 262.231 103.2ZM265.831 103.6C265.831 103.6 265.831 103.6 266.231 103.6L265.831 103.2C265.831 103.2 265.831 103.2 265.831 103.6ZM266.631 116.4C267.031 116 267.431 116 267.431 115.2L267.031 114.8C266.631 115.2 266.231 115.6 266.231 116C266.231 116.4 266.631 116.4 266.631 116.4ZM267.031 99.6C267.431 99.6 268.231 99.2 268.231 98.4C268.231 98.4 267.831 98.4 267.831 98C267.831 98 267.831 98 267.831 98.4C267.031 98.4 267.031 98.8 267.031 99.6ZM269.431 92.8H269.831C270.631 91.2 271.031 89.6 270.631 87.6L270.231 87.2V87.6C270.231 88 269.831 88.8 269.431 89.2C269.431 90 269.031 90.8 269.031 91.2C269.031 91.6 269.431 92.4 269.431 92.8C269.031 92.8 269.031 93.2 269.031 93.2C269.031 94 268.631 94.8 268.231 95.6C268.231 95.6 268.231 95.6 268.631 96V95.6C269.031 95.6 269.431 95.2 269.431 94.8C269.431 94 269.431 93.6 269.431 92.8ZM290.231 114C297.031 113.6 304.231 112 311.431 111.6C309.431 111.6 303.431 111.2 299.831 111.6C296.231 112 292.231 112.4 288.631 112.4C285.831 112.8 271.431 112.8 270.631 115.6C270.631 115.6 288.231 114.4 290.231 114ZM315.831 110.8C316.231 110.8 311.831 108.8 311.831 110.8C313.031 110.8 314.631 110.8 315.831 110.8ZM321.831 110.4C321.031 110.4 324.231 110 321.831 110.4V110.4ZM335.431 109.6C337.031 109.2 334.231 108 333.831 109.2C333.831 109.6 335.831 109.6 335.431 109.6ZM362.631 106.8C363.831 107.6 364.631 107.6 366.231 106.8C366.231 106.8 363.831 105.6 362.631 106.8ZM371.831 106.8C371.831 106.8 370.231 106 369.031 106.8C369.831 107.2 371.031 107.2 371.831 106.8ZM390.631 108.8C391.031 108.4 389.831 108.4 389.831 108.8C389.831 108.8 390.231 109.2 390.631 108.8ZM364.788 219.2C364.788 219.2 361.588 222 360.388 222.8C357.988 224 355.188 224.4 353.188 226.8C356.388 226.4 348.388 232 347.988 232C343.188 235.2 337.988 238 333.188 240.8C322.388 247.2 311.188 253.2 299.988 258.8C294.788 261.6 289.188 264.4 283.588 266.8C279.188 268.8 277.988 268.4 281.588 272.8C287.188 279.6 291.588 286.4 294.788 294.8C301.588 312.4 305.188 331.2 306.388 350C307.188 369.6 305.988 390.8 299.988 409.6C295.588 423.6 287.588 442.4 269.587 440.4C253.187 438 247.587 416.4 245.587 402.4C242.387 382.8 243.987 362.8 245.987 343.2C247.987 324 251.987 305.2 256.787 286.4C257.587 284 260.787 277.6 257.987 276.8C256.787 276.4 253.587 277.6 252.387 277.6C244.787 278.4 239.587 275.2 233.187 272C233.987 272 234.387 271.6 234.787 271.6C233.987 270.8 233.587 270 233.187 268.8C233.987 270.8 238.787 267.2 236.387 271.2C241.587 270.8 246.387 274.8 251.987 275.2C252.387 275.2 261.987 274 260.787 272C259.987 271.2 257.987 273.6 257.187 272.4C257.187 272 260.787 270 261.187 269.6C260.787 269.6 260.387 269.2 259.987 269.2C259.987 269.2 262.787 266.4 262.787 265.2C262.787 262.8 259.987 262.8 259.187 261.2C261.587 260 262.387 262.4 264.787 260C266.387 258 267.187 250.8 267.987 248C271.187 240 273.987 232 277.188 223.6C280.788 215.6 284.388 207.2 287.988 199.2C290.387 194.4 293.588 182 299.988 182.8C308.788 183.6 304.388 190.4 301.988 195.2C297.988 203.2 294.388 211.2 291.188 219.6C287.588 227.6 284.388 236 281.588 244.4C279.988 248.4 278.788 252.8 277.588 257.2C277.588 258.4 277.188 261.2 277.188 261.6C277.188 261.2 275.187 263.6 275.987 264.4C277.988 265.2 283.988 260.8 285.988 259.6C289.588 257.6 293.188 256 296.788 254C304.788 250 312.388 246 319.588 241.2C318.388 241.2 317.188 241.2 315.988 241.2C317.988 240.4 319.588 239.2 321.588 238C321.188 238 321.188 238 320.788 237.6C320.788 237.2 321.588 236.8 321.988 237.2V237.6C322.788 237.2 323.588 236.8 323.988 236C325.188 235.6 326.388 234.8 327.188 234.4C327.988 234 328.788 233.6 329.987 233.2C329.987 233.2 329.987 233.2 329.987 232.8C329.588 232.8 329.987 232.8 329.987 233.2C331.988 232.4 334.788 232 336.388 230.8C338.388 229.2 341.188 227.2 344.388 225.2C343.988 225.2 343.988 224.8 344.788 224.8C344.788 224.8 344.788 224.8 344.788 225.2C345.188 224.8 345.588 224.8 345.988 224.4C345.988 224.4 345.988 224 345.988 224.4C346.788 224 347.988 223.6 348.788 223.6C348.788 223.2 348.388 223.2 348.788 223.2V223.6C349.988 223.2 351.188 222.8 352.388 222.8C350.388 224.4 347.988 225.6 345.988 226.8C352.388 224.4 358.788 222 364.788 219.2ZM242.787 274.8C242.787 274.4 243.187 275.6 242.787 274.8V274.8ZM247.987 276.4C248.787 276.4 244.787 274 244.387 275.2C243.987 276 247.587 276.4 247.987 276.4ZM340.788 227.6C340.388 228 341.588 226.4 340.788 227.6V227.6ZM337.988 230.8C336.788 230.8 340.388 230.4 337.988 230.8V230.8ZM319.588 240.8C321.988 241.2 322.388 239.2 322.788 238.4C322.788 238.8 319.588 240.4 319.588 240.8ZM279.988 283.2C278.788 280.8 276.787 276.8 274.387 275.2C271.587 273.2 273.187 272.8 271.587 274.4C270.787 275.6 269.987 280 269.587 281.6C268.387 285.6 267.187 289.6 265.987 293.6C262.387 306.8 259.987 320 257.587 333.6C253.587 358.4 251.587 384.8 257.187 409.6C258.787 417.2 261.187 429.2 267.587 434C275.187 440.4 280.788 430.8 284.388 424.4C296.388 402.8 297.988 375.2 296.788 350.8C295.188 328 291.988 302.8 279.988 283.2ZM304.788 253.2C305.588 252.8 305.588 252.4 305.988 252C301.588 251.6 293.988 257.6 290.387 259.2C286.388 261.2 278.788 262.8 276.387 266C274.387 268.4 284.388 263.6 285.988 262.8C292.388 259.6 298.788 256.8 304.788 253.2ZM319.188 245.2C319.588 244.8 319.588 244.4 319.988 244C317.988 244.4 305.988 250 305.988 252C309.988 252 315.188 246.8 319.188 245.2ZM319.988 244C320.788 244 321.188 244.4 321.188 243.6C320.788 243.6 320.388 243.2 319.988 244ZM321.588 243.6C322.388 243.2 323.188 242.8 323.988 242.4C322.788 242 321.588 242 321.588 243.6ZM323.988 242.4C324.388 242 324.388 242 324.388 241.6C324.388 241.6 323.988 242 323.988 242.4ZM324.388 238.8C324.788 238.8 326.388 237.6 326.388 237.2C325.988 237.2 325.188 237.2 324.788 237.2C323.988 237.6 323.988 238 324.388 238.8ZM324.788 241.6C325.988 241.6 327.188 241.6 327.588 240.4C326.388 240.4 325.588 240.4 324.788 241.6ZM326.388 237.2C327.188 237.2 327.588 237.2 327.988 236.4C327.188 236.4 326.788 236.4 326.388 237.2ZM328.388 240C328.388 239.6 327.988 240.4 327.988 240.4C327.988 240.4 327.988 240.4 328.388 240ZM329.188 239.6C329.188 240 329.188 238.4 329.188 239.6V239.6ZM331.988 234C331.188 234 330.388 234.4 329.987 235.2C330.788 235.2 333.988 233.6 331.988 234ZM329.987 238.8C330.788 239.2 331.988 239.2 332.388 237.6C331.188 238 330.388 238.4 329.987 238.8ZM333.188 234C333.188 234 333.588 233.6 333.588 233.2C333.188 233.2 333.188 233.6 333.188 234ZM333.588 233.2C333.988 233.2 334.788 233.6 334.788 232.4C334.388 232.8 333.588 232.4 333.588 233.2ZM334.788 232.4C335.188 232.4 335.588 232.4 335.588 232C335.188 232 334.788 232 334.788 232.4ZM336.788 231.6C336.388 231.2 335.987 231.2 335.588 231.2C335.588 232.8 336.388 231.6 336.788 231.6ZM336.388 236C336.388 235.6 336.788 235.6 336.788 235.2C334.788 235.6 335.987 236.4 336.388 236ZM336.788 235.2C337.188 235.2 337.988 235.2 337.988 234.4C337.588 234.4 337.188 234.4 336.788 235.2ZM337.988 234.4C338.788 234.4 339.188 234.8 339.588 234C338.788 234 338.388 233.6 337.988 234.4ZM339.588 234C339.988 233.6 339.988 232.8 339.588 234V234ZM340.788 233.2C340.788 233.2 340.788 232 340.788 233.2V233.2ZM341.588 232.4C341.988 232.4 341.988 231.6 341.588 232.4V232.4ZM341.588 230C341.988 229.6 342.388 229.2 342.788 228.8C341.988 228.8 339.188 229.2 338.788 230.8C339.588 230.4 340.388 230.4 341.588 230ZM343.588 231.6C342.788 231.6 343.588 231.2 343.588 231.6V231.6ZM343.588 228.8C343.988 228 343.988 228 343.588 227.6C342.388 228.4 342.388 228.8 343.588 228.8ZM347.588 230C347.988 229.6 348.388 229.2 349.188 228.8C343.588 228 347.588 230 347.588 230ZM350.388 228.4C351.588 228 352.388 227.6 352.788 226.8C351.588 226.8 349.988 227.2 349.188 228.8C349.588 228.8 349.988 228.8 350.388 228.4ZM277.588 261.6C277.988 256.8 283.988 261.6 279.588 261.6C279.188 261.6 278.388 261.6 277.588 261.6ZM279.588 260C279.188 260.4 280.388 260 279.588 260V260ZM286.388 257.2C285.988 258.8 283.188 259.6 281.588 259.6C281.188 259.2 281.188 256.8 281.988 258C281.988 258.4 281.988 258.4 282.388 258.8C282.788 258.4 283.588 258 283.988 257.6C283.988 257.6 283.988 257.6 284.388 257.6C285.188 257.2 285.988 257.2 286.388 257.2ZM285.188 257.2C285.188 257.2 285.188 256.8 285.188 257.2V257.2ZM280.788 258.8C280.788 259.2 280.788 258.8 280.788 258.8V258.8ZM356.788 225.6C357.588 224 358.788 224.4 358.388 224.8C357.988 224.8 357.588 225.2 356.788 225.6ZM357.588 224.4V224V224.4ZM300.788 250C300.788 249.2 301.588 249.2 301.988 249.6C301.988 249.6 300.788 251.2 300.788 250ZM286.788 257.2C286.388 257.2 286.788 257.2 286.788 257.2V257.2ZM286.788 257.2C287.188 256.4 287.588 256 288.388 256.4C287.988 257.2 287.588 257.2 286.788 257.2ZM253.987 273.2C253.587 272.8 254.787 272.4 255.587 272.8C255.187 273.2 254.787 273.2 253.987 273.2ZM334.788 230.8C334.388 230.4 334.388 230 335.188 230C335.588 230.4 335.588 230.8 334.788 230.8ZM354.388 221.6C353.988 221.6 354.388 221.6 354.388 221.6V221.6ZM355.188 221.2C355.188 221.6 354.788 221.6 354.388 221.6C354.788 220.8 355.188 220.8 355.188 221.2ZM317.988 239.6C317.588 239.6 317.188 240 316.788 239.6C317.188 238.8 317.588 238.8 317.988 239.6ZM354.388 221.6C353.988 222.4 353.588 222.4 352.788 222.4C353.188 221.6 353.588 221.6 354.388 221.6ZM316.388 241.6C315.988 242.4 315.588 242.4 314.788 242.4C315.188 241.2 315.588 241.6 316.388 241.6ZM299.188 251.6C298.788 251.6 298.788 251.2 299.188 250.8C299.588 250.8 299.588 251.6 299.188 251.6ZM288.388 256.4C289.188 255.6 289.188 255.6 289.588 256C289.188 256.4 289.188 256.4 288.388 256.4ZM284.788 256.4C282.388 256 286.788 256.8 284.788 256.4V256.4ZM283.188 257.2C283.988 256.8 283.988 256.8 283.988 257.6C283.588 257.6 281.988 257.2 283.188 257.2ZM350.788 220C350.388 220.4 350.388 219.6 350.788 220V220ZM357.188 220.8C356.788 221.2 357.588 220.4 357.188 220.8V220.8ZM351.988 221.2C351.588 220.8 351.988 222 351.988 221.2V221.2ZM352.788 222.4C352.788 222.8 352.788 222.8 352.388 222.8C352.388 222.4 352.388 222.4 352.788 222.4ZM346.788 223.6C345.588 224.4 347.188 223.6 346.788 223.6V223.6ZM346.388 224.4C346.388 224.4 346.788 224 346.388 224.4V224.4ZM356.388 226C355.988 224.8 356.388 226.4 356.388 226V226ZM339.588 226.4C339.588 226.8 339.988 226.8 339.988 226.8C339.988 226.8 339.588 226.8 339.588 226.4ZM321.988 236.8C321.988 236.8 322.788 236.4 322.388 236.8C321.988 236.8 321.988 236.8 321.988 236.8ZM320.388 238C319.988 238.4 321.588 237.6 320.388 238V238ZM316.788 240C315.988 240.4 317.588 239.6 316.788 240V240ZM315.588 240.4C314.788 240 315.188 241.2 315.588 240.4V240.4ZM314.788 242.8C314.388 243.2 315.588 242 314.788 242.8V242.8ZM314.788 242.4C314.788 242 315.188 242.4 314.788 242.4V242.4ZM304.788 248C304.388 247.6 305.588 247.2 304.788 248V248ZM293.988 251.6C293.588 252.4 294.388 251.2 293.988 251.6V251.6ZM294.388 252.8C293.588 253.2 295.188 252.4 294.388 252.8V252.8ZM293.988 253.6C293.588 254 295.188 252.8 293.988 253.6V253.6ZM306.388 187.2C305.188 186.8 306.788 187.2 306.388 187.2V187.2ZM254.787 270C254.387 270 255.587 269.6 254.787 270V270ZM253.187 271.6C252.387 272 252.787 271.2 253.187 271.6V271.6ZM386.719 213.2C388.319 226.4 375.919 242 367.919 251.6C364.719 255.6 359.119 263.6 353.119 262.8C349.119 262 342.319 256.8 341.119 253.2C338.719 246.8 342.319 238.8 345.119 233.2C346.719 230.4 350.319 226.8 351.119 223.6C351.519 220.4 351.519 222.4 348.719 219.6C345.119 216 344.719 211.2 347.119 206.4C347.919 204.4 353.519 196.4 356.319 197.2C356.319 197.6 356.319 198 355.919 198.4C357.519 197.2 380.319 203.6 379.519 204C379.119 204 375.119 203.2 375.119 204.4C375.519 205.2 381.119 206.4 382.319 206.8C384.719 208.4 386.319 210.4 386.719 213.2ZM370.719 202.8C369.919 203.2 373.519 204 374.719 203.2C373.119 202.4 372.319 202 370.719 202.8ZM363.919 207.6C362.719 208.4 361.919 209.6 361.119 210.8C363.119 210.4 365.119 206.8 363.919 207.6ZM361.119 210.8C360.719 210.8 360.319 210.8 360.319 211.2C360.719 211.2 361.119 211.2 361.119 210.8ZM360.319 211.2C359.919 211.2 359.919 211.6 359.919 212C360.319 212 360.319 211.6 360.319 211.2ZM359.919 212C359.519 212 359.119 212 359.119 212.4C359.519 212.4 359.919 212.4 359.919 212ZM353.519 222.4C353.119 223.2 354.319 222.4 353.519 222.4V222.4ZM353.119 201.6C352.319 202 353.519 201.6 353.119 201.6V201.6ZM349.519 217.2C349.919 217.6 351.919 220 353.119 219.6C356.319 218.8 347.119 214.8 349.519 217.2ZM368.319 235.6C368.719 235.6 368.719 235.2 368.719 234.4C367.919 234.8 368.319 235.2 368.319 235.6ZM368.319 232.4C367.919 232 368.719 233.2 368.319 232.4V232.4ZM369.119 234.4C368.719 235.2 369.519 233.6 369.119 234.4V234.4ZM371.519 230.8C372.319 230 370.719 230 370.719 230.8C371.119 231.2 371.119 231.2 371.519 230.8ZM370.719 227.6C370.719 227.2 371.119 228.4 370.719 227.6V227.6ZM371.919 226C371.919 225.2 371.919 225.2 371.519 226C371.119 226.8 371.919 226.8 371.919 226ZM372.719 224.4C371.919 224.4 371.919 224.8 371.919 225.6C372.719 225.2 372.719 224.8 372.719 224.4ZM372.319 228.4C371.919 228.8 373.519 228 372.319 228.4V228.4ZM372.719 228C373.119 227.6 373.519 227.2 373.119 227.2C372.719 227.2 372.319 227.6 372.719 228ZM373.919 225.6C374.719 225.2 374.319 224.8 374.319 224.4C373.519 224.4 373.919 224.8 373.919 225.6ZM377.519 218.8C378.719 215.2 376.719 209.6 373.119 207.2C371.519 206 365.919 204.8 364.719 207.6C365.519 206 368.719 208.4 368.719 208.8C369.919 211.2 367.919 212.4 367.119 214.4C363.919 218.8 361.119 223.6 358.719 228.8L351.919 249.6C356.719 249.6 363.519 235.6 365.119 232.4C367.919 228.4 370.319 224 372.319 219.6C373.119 218 373.119 214 374.319 212.8C374.319 213.2 373.919 224 372.719 224C373.519 224 373.919 221.6 374.319 221.6C374.719 227.2 376.719 220.8 377.519 218.8ZM428.709 287.2C428.709 287.6 429.109 287.2 428.709 287.2V287.2ZM499.909 219.2C502.309 220.4 472.709 258.4 469.509 262C464.309 268.8 457.909 276.4 451.109 282C444.309 287.6 443.909 286 448.309 280.4C450.709 277.6 453.109 275.6 455.909 273.2C457.109 272 458.309 270.4 459.509 269.2C460.709 268 461.509 268.4 462.309 268C462.709 268 463.109 267.6 463.509 267.2C463.109 267.6 463.509 265.2 463.909 264.8C465.509 262.4 468.709 260.4 470.309 258.4C471.509 257.2 475.509 252.8 475.109 251.6C475.109 251.6 467.909 259.2 467.109 260C464.309 263.2 461.109 265.6 457.909 268.4C453.509 272 443.909 285.6 437.909 285.2C439.509 282.4 444.309 281.6 445.509 278.4C445.509 278 441.509 280.8 440.709 281.2C438.309 282.8 435.509 284 432.709 285.6C433.509 282.4 427.909 288 426.709 288.4C423.109 290 416.709 289.6 413.109 288C400.309 282 396.709 266.4 395.909 253.6C394.709 226.8 401.109 200 407.509 174C414.709 146 423.109 118.4 432.709 90.8C441.909 65.2 451.909 37.2 468.309 15.2C471.509 10.8 476.309 4.39998 481.909 2.39998C486.709 0.799976 489.509 3.59999 493.509 5.59999C503.909 11.2 507.509 17.6 507.509 29.2C508.309 51.2 497.909 72.4 489.109 92.4C485.509 100.4 481.109 108 477.109 116C472.309 126 466.709 135.6 461.509 145.6C451.509 162.8 441.109 180.4 428.309 195.6C422.709 202.4 413.909 210 409.909 218C407.909 222.4 408.309 229.2 407.909 233.6C405.909 249.6 405.109 269.6 416.709 282.4C427.909 294.4 452.309 265.2 459.509 258C467.109 250.4 474.709 242.8 482.309 234.8C484.309 232.8 496.309 217.2 499.909 219.2ZM451.509 154C451.109 154 452.309 153.6 451.509 154V154ZM452.309 152.4C451.909 152 452.709 152 452.309 152.4V152.4ZM454.309 149.2C453.909 149.6 455.109 149.2 454.309 149.2V149.2ZM455.909 146.4C456.709 146 456.309 145.6 456.709 144.8C455.909 145.2 455.909 145.6 455.909 146.4ZM456.709 144.8C457.509 144.8 457.109 144 457.109 143.6C456.309 144 456.709 144.4 456.709 144.8ZM457.109 143.6C457.909 143.2 457.909 142.8 457.509 142.8C457.109 142.8 457.109 143.2 457.109 143.6ZM458.709 140.8C458.309 140.8 459.509 140.4 458.709 140.8V140.8ZM459.509 139.6C459.109 139.2 459.909 139.2 459.509 139.6V139.6ZM461.909 134.8C462.709 134.4 462.309 134 462.309 133.2C461.509 133.6 461.909 134 461.909 134.8ZM462.309 133.2C463.109 133.2 463.109 132.8 463.109 132C462.309 132.4 462.309 132.8 462.309 133.2ZM463.509 132C462.709 132.8 463.909 131.2 463.509 132V132ZM465.109 129.2C464.709 129.2 464.309 129.6 464.709 129.2H465.109ZM466.309 126.8C466.309 126 466.309 126 465.509 126.8C465.509 127.6 466.309 127.2 466.309 126.8ZM466.309 126.4C467.109 126 466.709 125.6 466.709 125.2C465.909 125.2 466.309 125.6 466.309 126.4ZM466.709 124.8C467.509 124.8 467.509 124.4 467.509 124C466.709 124 466.709 124.4 466.709 124.8ZM468.709 122C468.309 123.2 469.109 119.6 468.709 122V122ZM468.709 121.2C469.509 120.8 469.509 120.4 469.509 120C468.709 120 468.709 120.4 468.709 121.2ZM469.509 119.6C470.309 119.6 469.909 119.2 469.909 118.4C469.109 118.8 469.509 119.2 469.509 119.6ZM470.309 118.4C470.709 118.4 470.709 117.6 470.709 117.2C469.909 117.2 470.309 118 470.309 118.4ZM470.709 117.2C471.509 117.2 471.509 116.4 471.509 116C470.709 116 470.709 116.8 470.709 117.2ZM471.909 115.6C471.909 114.8 471.509 114.8 471.509 115.2C471.109 116 471.509 116 471.909 115.6ZM473.109 112.8C473.509 112 473.109 112 472.709 112.8C472.709 113.2 473.109 113.2 473.109 112.8ZM475.909 106.8C475.909 106 475.909 106 475.109 106.8C475.109 107.6 475.909 107.6 475.909 106.8ZM477.109 105.2C477.109 104.8 475.509 103.6 475.909 106.4C476.309 106 476.709 105.6 477.109 105.2ZM477.509 103.6C477.109 103.2 477.909 103.2 477.509 103.6V103.6ZM478.709 101.2C479.109 100.8 479.109 100.4 478.709 100C478.309 100 478.309 100.4 478.709 101.2ZM484.309 98C484.309 97.2 484.309 97.2 483.509 97.6C483.509 98.4 484.309 98.4 484.309 98ZM484.709 97.2C483.909 98 485.109 96.4 484.709 97.2V97.2ZM454.309 57.6C453.909 58 453.909 58.4 454.309 58.4C454.309 58.4 454.709 57.2 454.309 57.6ZM453.109 60.8C452.709 61.2 453.509 61.2 453.109 60.8V60.8ZM451.509 64C451.109 64.8 452.309 64 451.509 64V64ZM451.109 66C450.309 66 451.509 65.6 451.109 66V66ZM450.309 67.6C449.909 68.4 450.309 68.4 450.709 67.6C450.709 67.2 450.309 67.2 450.309 67.6ZM449.909 68.4C449.109 68.4 449.509 69.2 449.509 69.6C450.309 69.6 449.909 68.8 449.909 68.4ZM449.509 69.6C448.709 70 448.709 70.8 448.709 71.6C449.509 71.2 449.509 70.4 449.509 69.6ZM448.309 72C448.309 72.8 448.709 72.8 448.709 72C449.109 71.2 448.709 71.2 448.309 72ZM447.909 73.6C447.509 74.4 448.309 73.6 447.909 73.6V73.6ZM446.709 76.8C446.309 77.2 446.309 77.6 446.709 77.6C447.109 77.6 447.109 77.2 446.709 76.8ZM445.109 80C445.109 80.4 445.109 80.8 445.109 80.8C445.509 81.6 445.109 80 445.109 80ZM444.309 82.4C444.309 84.8 444.309 81.2 444.309 82.4V82.4ZM444.309 83.2C443.509 83.2 443.909 84 443.509 84.4C444.309 84.4 444.309 83.6 444.309 83.2ZM443.509 84.4C443.109 84.8 442.709 85.6 443.109 86.4C443.509 86 443.909 85.2 443.509 84.4ZM443.109 86.4C442.309 86.8 442.309 87.6 442.309 88.4C443.109 87.6 443.109 87.2 443.109 86.4ZM442.309 88.4C441.909 88.8 441.509 89.2 441.909 90C442.309 89.6 442.709 89.2 442.309 88.4ZM441.109 92.8C440.709 92 440.709 92 440.309 92.8C440.709 93.2 440.709 93.2 441.109 92.8ZM440.309 94C439.509 94.8 439.509 94.8 440.309 95.2C440.309 94.8 440.309 94.4 440.309 94ZM439.909 96.8C439.909 96 439.109 96 439.109 96.8C439.109 97.6 439.109 97.6 439.909 96.8ZM439.109 97.2C438.309 98 438.309 98.4 438.709 98.8C438.709 99.6 439.109 98.4 439.109 97.2ZM437.909 100.8C437.909 100.8 438.309 100.4 437.909 100.8V100.8ZM437.909 101.2C437.109 101.6 437.109 102.4 437.509 102.8C437.509 103.6 437.509 102.4 437.909 101.2ZM436.309 106.4C435.909 106.8 436.709 106.8 436.309 106.4V106.4ZM435.509 107.6C435.109 108 435.109 108.4 435.509 108.8C435.909 108.4 435.909 108 435.509 107.6ZM435.109 110.4C434.309 110.4 435.509 110 435.109 110.4V110.4ZM434.309 111.6C433.909 112 433.909 112.4 434.309 112.4C434.709 112 434.709 112 434.309 111.6ZM433.509 114.8C433.509 115.2 433.909 115.2 433.909 114.8C433.909 114 433.509 114 433.509 114.8ZM431.109 123.2C430.709 123.6 431.509 123.6 431.109 123.2V123.2ZM428.309 131.6C427.909 132.4 429.109 131.6 428.309 131.6V131.6ZM426.709 138C426.309 138.4 427.109 138.4 426.709 138V138ZM425.909 140.4C425.509 141.2 426.309 140.8 425.909 140.4V140.4ZM421.909 153.6C421.909 154 421.909 154.4 422.309 154.4C422.309 154 422.309 153.6 421.909 153.6ZM416.709 183.6C416.309 186.8 409.109 206.8 412.309 209.2C418.309 203.2 422.709 194 427.109 186.8C432.709 178.4 437.909 170 443.109 161.2C452.309 145.2 460.309 128.8 468.309 112C475.909 96.8 484.309 81.6 489.909 65.2C492.709 56.8 494.709 48.4 495.909 39.6C496.309 35.6 496.709 31.6 496.709 27.2C496.309 24.4 495.509 20.8 496.309 18C498.309 18.4 497.509 24.8 498.709 25.6C498.309 25.2 496.309 13.2 496.309 12.4C499.109 12.8 497.109 14.4 497.909 15.2C501.109 18 501.909 24.8 502.309 30C502.309 32.8 502.309 37.2 502.309 38.8C501.909 42.4 501.909 42 501.509 44.4C500.309 51.2 498.709 58.4 496.309 65.2C494.709 70.8 492.309 76.4 489.909 81.6C488.709 84.4 483.109 93.6 484.709 96C487.509 94 489.509 85.6 490.709 82.4C492.709 77.6 494.309 73.6 495.909 68.8C497.509 64.4 498.709 59.6 500.309 55.2C501.109 52.8 502.309 50.8 502.709 48.4C503.509 45.6 502.309 40.4 504.309 38C505.909 36 503.909 26 503.509 23.6C502.709 19.2 499.909 11.2 495.909 9.59998C485.509 4.79997 473.509 28.8 469.909 35.2C461.109 50.4 453.909 66.8 448.709 83.6C445.509 93.2 443.109 102.8 439.509 112.4C439.109 113.6 435.109 120.8 436.309 122.4C434.309 120 438.309 111.6 438.709 108.8C440.309 103.2 441.909 97.6 443.509 92C444.709 92 447.909 82.8 447.509 81.6C447.509 81.6 444.709 88.8 444.309 89.6C443.909 90.4 443.509 91.2 443.509 92C436.309 111.6 430.309 131.6 424.709 152C421.909 162.4 419.509 173.2 416.709 183.6ZM485.109 85.2C485.109 85.2 485.909 85.6 485.509 84.8C485.109 84.4 485.109 84.4 485.109 85.2ZM486.309 82.4C486.709 82.4 486.709 81.6 486.309 82.4V82.4ZM487.109 80.8C487.909 80.4 487.109 78.4 486.709 79.6C486.709 80.4 486.709 80.8 487.109 80.8ZM487.509 77.6C487.509 78 487.509 78.4 487.509 79.2C487.909 78.8 489.509 76.8 488.709 76.4C487.909 76 487.509 76.4 487.509 77.6ZM489.909 72C489.509 72 488.709 74 489.509 74.4C490.709 75.2 491.109 70.8 491.509 70.4C490.709 70.8 490.309 71.2 489.909 72ZM491.509 69.6C491.109 70.4 491.509 70.4 491.909 69.6C491.909 68.8 491.509 69.2 491.509 69.6ZM492.309 67.2C492.309 66.8 492.709 67.6 492.309 67.2V67.2ZM492.709 65.2C493.109 65.6 493.109 65.6 493.109 64.8C493.109 64.4 492.709 64.4 492.709 65.2ZM493.509 63.2C493.109 63.6 493.909 63.6 493.909 63.2C493.909 62.4 493.509 62.4 493.509 63.2ZM494.309 60.8C493.909 61.2 493.909 61.6 494.309 61.6C494.309 61.6 494.709 60.8 494.309 60.8ZM495.109 58.8C494.709 58.8 494.709 58.8 494.709 59.2C495.109 59.2 495.109 58.8 495.109 58.8ZM495.909 56.8C494.309 56.8 495.909 60 495.909 58C495.909 57.6 495.909 57.2 495.909 56.8ZM498.709 26.4C495.909 28.8 499.509 40.4 497.509 44C497.109 44.8 496.709 46.8 497.509 47.6C499.909 45.2 500.709 28.8 498.709 26.4ZM497.109 48.8C495.509 50.8 495.909 54.4 495.909 56.8C497.509 56 497.109 48.8 497.109 48.8ZM433.509 284C433.909 284 433.909 284 433.909 283.6C433.509 283.6 433.509 283.6 433.509 284ZM435.909 282.4C435.509 283.2 435.509 282.4 435.909 282.4V282.4ZM435.909 282C436.309 282 436.709 282 436.709 281.6C436.309 281.6 435.909 281.6 435.909 282ZM436.709 281.6C437.109 281.6 437.109 281.2 437.109 280.8C436.709 280.8 436.709 281.2 436.709 281.6ZM437.109 280.8C437.509 280.8 437.909 280.8 437.909 280.4C437.509 280.4 437.109 280.4 437.109 280.8ZM437.909 280.4C438.309 280.4 439.109 280.4 439.109 279.6C438.709 279.6 437.909 279.6 437.909 280.4ZM439.109 279.6C439.509 279.6 439.909 279.2 439.909 278.8C439.509 278.8 439.109 279.2 439.109 279.6ZM439.909 278.8C440.309 278.8 440.309 278.8 440.309 278.4C439.909 278.4 439.909 278.4 439.909 278.8ZM440.309 278.4C443.509 278.4 443.509 275.2 442.709 276C441.909 276.4 441.109 277.2 440.309 278.4ZM443.509 275.6C443.909 275.6 444.309 275.6 444.309 275.2C443.909 275.2 443.509 275.2 443.509 275.6ZM444.309 275.2C444.709 275.2 445.109 274.8 445.109 274.4C444.709 274.4 444.309 274.8 444.309 275.2ZM448.309 272C449.509 271.2 452.309 268.8 452.709 267.2C450.309 267.2 446.709 272.4 445.109 274C444.309 274.8 447.909 272.4 448.309 272ZM452.709 267.2C453.109 267.2 453.109 267.2 453.109 266.8C453.109 266.8 452.709 266.8 452.709 267.2ZM453.509 266.8C453.909 266.8 453.909 266.4 453.909 266C453.509 266 453.509 266.4 453.509 266.8ZM453.909 266C454.309 266 454.709 266 454.709 265.6C454.309 265.6 453.909 265.6 453.909 266ZM454.709 265.6C455.109 265.6 455.109 265.2 455.109 264.8C454.709 264.8 454.709 265.2 454.709 265.6ZM455.109 264.8C455.509 264.8 455.909 264.4 455.909 264C455.509 264 455.109 264.4 455.109 264.8ZM455.909 264C456.309 264 456.709 264 456.709 263.6C456.309 263.6 455.909 263.6 455.909 264ZM456.709 263.6C457.109 263.6 457.109 263.2 457.109 262.8C456.709 262.8 456.709 263.2 456.709 263.6ZM467.109 254C469.109 251.6 475.909 247.2 475.909 244.4C469.109 247.6 463.109 256.8 457.509 262C455.909 264 460.709 260.4 460.709 260C463.109 258.4 465.109 256 467.109 254ZM475.909 244C476.309 244 476.309 244 476.309 243.6C475.909 243.6 475.909 243.6 475.909 244ZM476.709 243.6C477.909 243.2 478.709 242.4 479.109 240.8C477.909 241.6 477.109 242.4 476.709 243.6ZM479.109 240.8C479.509 240.8 479.909 240.8 479.909 240.4C479.509 240.4 479.109 240.4 479.109 240.8ZM479.909 240.4C480.309 240.4 480.309 240 480.309 239.6C479.909 239.6 479.909 240 479.909 240.4ZM480.309 239.2C479.509 240.4 483.509 236.4 483.509 236.4C482.309 236.4 481.109 238 480.309 239.2ZM483.509 236.4C483.909 236.4 484.309 236.4 484.309 236C483.909 236 483.509 236 483.509 236.4ZM484.309 235.6C485.109 235.6 485.509 235.2 485.509 234.4C484.309 234.8 484.309 234.8 484.309 235.6ZM485.509 234C484.709 235.2 488.709 231.2 488.709 231.2C487.509 231.2 485.909 232.8 485.509 234ZM489.109 230.8C487.909 230.8 489.509 230.8 489.109 230.8V230.8ZM490.709 229.2C490.309 230.4 490.309 229.6 490.709 229.2V229.2ZM490.709 229.2C491.109 229.2 491.109 229.2 491.109 228.8C491.109 228.8 490.709 228.8 490.709 229.2ZM491.509 228.8C491.909 228.8 491.909 228.4 491.909 228C491.509 228 491.509 228.4 491.509 228.8ZM492.309 227.6C491.109 228.4 492.709 227.2 492.309 227.6V227.6ZM427.909 150.4C425.109 148.4 435.509 128 434.709 124.8C435.109 124.4 435.109 122.4 435.909 122.4C435.909 126 426.709 149.6 427.909 150.4ZM437.109 286C437.109 286 437.509 286 437.109 286V286ZM435.509 287.2C435.509 286.4 436.309 286 437.109 286C436.709 286.8 436.309 287.6 435.509 287.2ZM431.509 285.6C431.509 285.6 431.509 285.2 431.509 285.6V285.6ZM430.709 286C431.109 285.2 431.909 285.2 432.709 285.6C432.309 286 430.709 287.6 430.709 286ZM432.709 285.6C432.709 285.6 432.709 285.2 432.709 285.6V285.6ZM429.509 287.2C429.509 286.4 429.909 286.4 430.709 286.8C430.709 287.2 430.309 287.6 429.509 287.2ZM493.909 9.99998C493.109 8.79999 493.909 10.4 493.909 9.99998V9.99998ZM493.509 9.59998C493.109 9.59998 493.109 9.59998 493.509 9.59998V9.59998ZM495.509 11.2C495.109 10.8 495.909 12.4 495.509 11.2V11.2ZM496.309 12.4C495.909 12.4 495.909 12 495.909 11.6C496.309 11.6 496.309 12 496.309 12.4ZM496.309 12.4C496.309 12.4 496.709 12.4 496.309 12.4V12.4ZM495.509 17.6C495.109 17.2 495.909 18.8 495.509 17.6V17.6ZM462.309 267.2C462.309 267.6 462.309 267.2 462.309 267.2V267.2ZM463.109 266.8C461.909 266.8 463.109 268.4 463.109 266.8V266.8ZM463.109 267.2C463.109 267.6 463.109 267.2 463.109 267.2V267.2ZM461.909 268C461.509 268 461.909 268 461.909 268V268ZM462.309 267.2C461.109 267.6 462.309 268.8 462.309 267.2V267.2ZM437.109 286C437.109 285.6 437.509 285.6 437.909 285.6C437.909 286 437.509 286 437.109 286ZM437.909 285.6C437.909 285.6 437.909 285.2 437.909 285.6V285.6ZM444.709 286C445.109 286 445.109 286 444.709 286V286ZM444.709 286.4C444.309 286.8 445.909 286 444.709 286.4V286.4ZM429.109 287.6C427.909 288 430.309 287.6 429.109 287.6V287.6ZM435.109 287.2C435.109 287.2 435.509 287.2 435.109 287.2V287.2ZM435.109 287.6C434.709 288 435.109 287.6 435.509 287.6C435.109 287.6 435.109 287.6 435.109 287.6ZM552.459 228.4C552.859 226.8 556.459 221.6 558.059 220.8C559.659 224.4 551.259 236.4 548.859 239.2C544.059 246.4 536.859 252.8 530.859 258.4C525.659 262.8 523.659 267.2 517.659 269.6C513.259 271.2 511.259 269.6 506.859 268.4C507.659 266.4 514.059 265.6 516.059 264C516.459 263.6 517.259 262 518.859 260.8C521.659 258.4 524.459 256.8 527.259 254C527.259 253.2 515.659 261.6 513.659 262.4C508.859 265.6 502.859 268.4 497.659 264.4C490.059 259.2 490.059 246 491.259 237.6C492.059 230.4 493.659 223.6 495.259 216.4C496.059 212.4 497.659 200.8 501.659 198.4C504.459 196.8 507.659 200.4 509.259 203.2C512.459 208.4 510.059 215.2 508.859 221.2C507.659 227.2 498.859 258.8 506.059 261.6C509.259 262.8 516.459 256.8 519.259 254.8C524.059 251.6 528.459 247.2 532.859 242.8C537.259 238.4 541.659 233.6 546.059 228.8C548.459 226.4 556.459 214 559.659 214.4C560.859 214.4 554.859 221.6 554.459 222.4C552.059 225.6 549.259 228.8 546.459 232C543.659 234.8 540.859 238 538.059 241.2C537.259 242.4 534.859 246 534.059 246.4C532.459 246.8 532.059 247.6 531.659 249.2C533.659 248.8 534.459 246.4 536.059 245.2C538.059 243.6 539.659 243.2 541.659 240.8C542.859 239.2 554.459 230 553.659 228.8C553.259 228.4 552.859 228.4 552.459 228.4ZM530.459 250.4C530.859 250 531.259 249.6 531.659 249.2C530.859 249.2 529.659 249.6 528.859 250.4C529.259 250.4 530.059 250.4 530.459 250.4ZM539.659 245.2C539.259 245.6 539.659 246 539.659 245.2V245.2ZM539.659 245.2C540.059 245.2 540.459 244.8 540.459 244.4C540.059 244.8 539.659 244.8 539.659 245.2ZM540.459 244.4C540.859 244.4 540.859 244.4 540.859 244C540.859 244 540.459 244 540.459 244.4ZM541.259 244C541.259 244 541.259 243.6 541.259 243.2C541.259 243.2 541.259 243.6 541.259 244ZM541.259 243.2C541.659 243.2 542.059 243.2 542.059 242.8C541.659 242.8 541.259 242.8 541.259 243.2ZM542.059 242.8C542.459 242.8 542.459 242.4 542.459 242C542.059 242 542.059 242.4 542.059 242.8ZM542.459 242C542.859 242 543.259 241.6 543.259 241.2C542.859 241.2 542.459 241.6 542.459 242ZM543.259 241.2C543.659 241.2 544.059 241.2 544.059 240.8C543.659 240.8 543.259 240.8 543.259 241.2ZM544.059 240.8C544.459 240.8 544.459 240.4 544.459 240C544.059 240 544.059 240.4 544.059 240.8ZM544.459 240C544.859 240 544.859 240 544.859 239.6C544.859 239.6 544.459 239.6 544.459 240ZM544.859 239.2C545.259 239.2 545.259 239.2 545.259 238.8C544.859 238.8 544.859 239.2 544.859 239.2ZM545.259 238.8C545.659 238.8 546.059 238.4 546.059 238C545.659 238 545.259 238.4 545.259 238.8ZM546.059 238C546.459 238 546.859 238 546.859 237.6C546.459 237.6 546.059 237.6 546.059 238ZM547.259 237.2C546.459 237.6 546.859 236.8 547.259 237.2V237.2ZM550.459 235.6C550.059 236 550.859 236.4 550.459 235.6V235.6ZM523.659 167.6C520.859 173.2 517.259 171.6 513.659 167.2C509.659 163.2 514.459 154.4 516.059 149.6C516.459 146.4 516.859 142.4 520.059 142.4C522.859 142.4 526.059 146 527.259 148.4C530.059 154.4 526.059 162.4 523.659 167.6ZM518.059 166.8C516.459 169.2 522.059 170.8 522.459 167.6C522.859 164.4 519.259 165.2 518.059 166.8ZM548.859 232C549.659 230.8 550.859 230 552.059 229.2C551.659 230.8 550.459 232 549.259 233.2C549.259 232.8 548.859 232.4 548.859 232ZM552.059 229.2C552.059 228.8 552.059 228.4 552.459 228.4C552.459 228.8 552.059 229.2 552.059 229.2ZM597.266 213.2C598.866 226.4 586.466 242 578.466 251.6C575.266 255.6 569.666 263.6 563.666 262.8C559.666 262 552.866 256.8 551.666 253.2C549.266 246.8 552.866 238.8 555.666 233.2C557.266 230.4 560.866 226.8 561.666 223.6C562.066 220.4 562.066 222.4 559.266 219.6C555.666 216 555.266 211.2 557.666 206.4C558.466 204.4 564.066 196.4 566.866 197.2C566.866 197.6 566.866 198 566.466 198.4C568.066 197.2 590.866 203.6 590.066 204C589.666 204 585.666 203.2 585.666 204.4C586.066 205.2 591.666 206.4 592.866 206.8C595.266 208.4 596.866 210.4 597.266 213.2ZM581.266 202.8C580.466 203.2 584.066 204 585.266 203.2C583.666 202.4 582.866 202 581.266 202.8ZM574.466 207.6C573.266 208.4 572.466 209.6 571.666 210.8C573.666 210.4 575.666 206.8 574.466 207.6ZM571.666 210.8C571.266 210.8 570.866 210.8 570.866 211.2C571.266 211.2 571.666 211.2 571.666 210.8ZM570.866 211.2C570.466 211.2 570.466 211.6 570.466 212C570.866 212 570.866 211.6 570.866 211.2ZM570.466 212C570.066 212 569.666 212 569.666 212.4C570.066 212.4 570.466 212.4 570.466 212ZM564.066 222.4C563.666 223.2 564.866 222.4 564.066 222.4V222.4ZM563.666 201.6C562.866 202 564.066 201.6 563.666 201.6V201.6ZM560.066 217.2C560.466 217.6 562.466 220 563.666 219.6C566.866 218.8 557.666 214.8 560.066 217.2ZM578.866 235.6C579.266 235.6 579.266 235.2 579.266 234.4C578.466 234.8 578.866 235.2 578.866 235.6ZM578.866 232.4C578.466 232 579.266 233.2 578.866 232.4V232.4ZM579.666 234.4C579.266 235.2 580.066 233.6 579.666 234.4V234.4ZM582.066 230.8C582.866 230 581.266 230 581.266 230.8C581.666 231.2 581.666 231.2 582.066 230.8ZM581.266 227.6C581.266 227.2 581.666 228.4 581.266 227.6V227.6ZM582.466 226C582.466 225.2 582.466 225.2 582.066 226C581.666 226.8 582.466 226.8 582.466 226ZM583.266 224.4C582.466 224.4 582.466 224.8 582.466 225.6C583.266 225.2 583.266 224.8 583.266 224.4ZM582.866 228.4C582.466 228.8 584.066 228 582.866 228.4V228.4ZM583.266 228C583.666 227.6 584.066 227.2 583.666 227.2C583.266 227.2 582.866 227.6 583.266 228ZM584.466 225.6C585.266 225.2 584.866 224.8 584.866 224.4C584.066 224.4 584.466 224.8 584.466 225.6ZM588.066 218.8C589.266 215.2 587.266 209.6 583.666 207.2C582.066 206 576.466 204.8 575.266 207.6C576.066 206 579.266 208.4 579.266 208.8C580.466 211.2 578.466 212.4 577.666 214.4C574.466 218.8 571.666 223.6 569.266 228.8L562.466 249.6C567.266 249.6 574.066 235.6 575.666 232.4C578.466 228.4 580.866 224 582.866 219.6C583.666 218 583.666 214 584.866 212.8C584.866 213.2 584.466 224 583.266 224C584.066 224 584.466 221.6 584.866 221.6C585.266 227.2 587.266 220.8 588.066 218.8Z" fill="#1F2F4E"/>
</svg>
