<svg width="1083" height="418" viewBox="0 0 1083 418" fill="none" xmlns="http://www.w3.org/2000/svg">
<path d="M900 231.206L910.104 227.196L914.078 217L918.052 227.196L928.156 231.206L918.052 235.483L914.078 245.412L910.104 235.216L900 231.206Z" fill="#202031"/>
<path d="M520.756 91.1265C664.51 66.103 796.943 56.6816 894.843 61.6717C943.796 64.167 984.088 70.2649 1012.84 79.8021C1027.21 84.5708 1038.67 90.1907 1046.89 96.6309C1055.1 103.069 1060.03 110.303 1061.43 118.308C1062.82 126.312 1060.62 134.79 1055.07 143.623C1049.51 152.46 1040.62 161.623 1028.71 170.968C1004.87 189.658 969.01 209.012 923.779 227.903C833.323 265.68 705.497 301.562 561.743 326.586C417.989 351.609 285.556 361.031 187.657 356.04C138.703 353.545 98.4114 347.447 69.6636 337.91C55.2894 333.141 43.8266 327.521 35.613 321.081C27.4025 314.644 22.4651 307.409 21.0717 299.404C19.6784 291.4 21.8807 282.922 27.4329 274.089C32.9872 265.252 41.8768 256.089 53.7942 246.744C77.6284 228.054 113.489 208.7 158.721 189.81C249.176 152.032 377.002 116.15 520.756 91.1265Z" stroke="#1F2E4B"/>
<circle cx="843" cy="257" r="9" fill="#202031"/>
<circle cx="808.5" cy="268.5" r="5.5" fill="#202031"/>
</svg>
