<svg width="569" height="322" viewBox="0 0 569 322" fill="none" xmlns="http://www.w3.org/2000/svg">
<path d="M504 101.206L514.104 97.1959L518.078 86.9999L522.052 97.1959L532.156 101.206L522.052 105.484L518.078 115.412L514.104 105.216L504 101.206Z" fill="#202031"/>
<path d="M262.452 105.803C334.852 76.7237 402.873 56.5973 454.314 47.5605C480.038 43.0414 501.59 41.2999 517.46 42.5876C525.396 43.2316 531.883 44.6311 536.753 46.8C541.621 48.9677 544.831 51.8849 546.302 55.5471C547.773 59.2091 547.472 63.536 545.456 68.4681C543.44 73.4028 539.723 78.9009 534.437 84.8554C523.867 96.7629 507.098 110.413 485.395 124.944C441.994 154 378.95 186.516 306.55 215.596C234.15 244.675 166.129 264.802 114.688 273.839C88.9631 278.358 67.4112 280.099 51.5412 278.811C43.6051 278.168 37.1178 276.768 32.248 274.599C27.381 272.431 24.1706 269.515 22.6996 265.853C21.2287 262.191 21.5295 257.863 23.545 252.931C25.5616 247.996 29.2785 242.498 34.5642 236.544C45.1344 224.636 61.9032 210.986 83.6068 196.456C127.007 167.399 190.052 134.883 262.452 105.803Z" stroke="#1F2E4B"/>
<circle cx="200" cy="251" r="9" fill="#202031"/>
<circle cx="165.5" cy="262.5" r="5.5" fill="#202031"/>
</svg>
